<?xml version="1.0" standalone="no"?>
<!DOCTYPE svg PUBLIC "-//W3C//DTD SVG 1.1//EN" "http://www.w3.org/Graphics/SVG/1.1/DTD/svg11.dtd" >
<svg xmlns="http://www.w3.org/2000/svg">
<metadata>
Created by FontPrep 20130207 at Sun Dec  7 15:23:24 2014
 By Lawrence Chin
Copyright (c) 1991, 1992, 1995, 2002 Adobe Systems Incorporated.  All Rights Reserved. (c) 1981, 2002 Heidelberger Druckmaschinen AG. All rights reserved.
</metadata>
<defs>
<font id="c2614630fe20170a39c74e4b1da80918" horiz-adv-x='1024' >
  <font-face 
    font-family="CaeciliaLTStd-Italic"
    font-weight="400"
    font-style="italic"
    font-stretch="normal"
    units-per-em="2048"
    panose-1="0 0 5 0 0 0 0 0 0 0"
    ascent="1575"
    descent="-473"
    x-height="1057"
    cap-height="1434"
    bbox="-340 -553 2157 1874"
    underline-thickness="102"
    underline-position="-102"
    slope="-5"
    unicode-range="U+0020-FB02"
  />
<missing-glyph horiz-adv-x="1087" 
d="M166 1239v-1044l348 522zM227 102h697l-349 523zM637 717l348 -522v1044zM575 809l349 522h-697zM63 0v1434h1024v-1434h-1024z" />
    <glyph glyph-name="f_i" unicode="fi" horiz-adv-x="1175" 
d="M721 1591q119 0 248 -37l-15 -131q-90 39 -220 39t-208 -66t-96 -227l-12 -112h577l-84 -928h156l-12 -129h-314l84 928h-415l-66 -834q-16 -209 -48 -332t-110 -196q-111 -104 -262 -105q-100 0 -188 31l10 137q70 -29 163 -29t172 68t107 432l66 828h-164l10 129h162
l12 119q20 215 122 315t325 100z" />
    <glyph glyph-name="f_l" unicode="fl" horiz-adv-x="1175" 
d="M721 1591q92 0 207 -16h141l-127 -1446h156l-13 -129h-315l127 1446q-72 16 -156 16q-137 0 -215 -66t-96 -227l-12 -112h309l-10 -129h-307l-66 -834q-14 -205 -47 -330t-111 -198q-111 -104 -262 -105q-100 0 -188 31l10 137q70 -29 163 -29t173 70q80 68 106 430
l66 828h-164l10 129h162l12 119q20 215 122 315t325 100z" />
    <glyph glyph-name=".notdef" horiz-adv-x="1087" 
d="M166 1239v-1044l348 522zM227 102h697l-349 523zM637 717l348 -522v1044zM575 809l349 522h-697zM63 0v1434h1024v-1434h-1024z" />
    <glyph glyph-name=".null" horiz-adv-x="0" 
 />
    <glyph glyph-name="nonmarkingreturn" horiz-adv-x="681" 
 />
    <glyph glyph-name="space" unicode=" " horiz-adv-x="569" 
 />
    <glyph glyph-name="exclam" unicode="!" horiz-adv-x="606" 
d="M135 96q0 47 35 82t82 35t82 -35t35 -82t-35 -82q-35 -34 -82 -34t-82 34t-35 82zM217 471l78 1104h176l-109 -1104h-145z" />
    <glyph glyph-name="quotedbl" unicode="&#x22;" horiz-adv-x="909" 
d="M223 1481q0 111 78 110q78 0 78 -110q0 -68 -8 -162l-25 -260q-4 -53 -45 -53t-45 53l-25 260q-8 94 -8 162zM633 1481q0 111 78 110q78 0 77 -110q0 -68 -8 -162l-24 -260q-4 -53 -45 -53t-45 53l-25 260q-8 94 -8 162z" />
    <glyph glyph-name="numbersign" unicode="#" 
d="M156 0l94 440h-230l21 129h238l63 295h-231l20 129h240l94 441h123l-94 -441h272l94 441h123l-94 -441h229l-20 -129h-238l-63 -295h231l-20 -129h-240l-94 -440h-123l94 440h-272l-94 -440h-123zM674 569l63 295h-272l-64 -295h273z" />
    <glyph glyph-name="dollar" unicode="$" 
d="M901 391q0 201 -262 254l-45 -530q111 1 209 75t98 201zM291 1092q0 -187 250 -242l41 469q-131 0 -211 -68t-80 -159zM207 358v-200q137 -43 270 -43l49 559q-225 57 -318 153t-93 230q0 187 141 293t338 108l20 248h115l-20 -248q213 -16 338 -61l-13 -293h-133v184
q-88 31 -205 31l-43 -498q424 -98 424 -395q0 -197 -137 -322t-358 -129l-25 -266h-115l25 266q-228 7 -406 68l13 315h133z" />
    <glyph glyph-name="percent" unicode="%" horiz-adv-x="1630" 
d="M76 -39l1397 1589l90 -77l-1397 -1590zM1036 288q0 -92 41 -145t122 -53t130 67t49 171q0 197 -157 196q-94 0 -140 -71q-45 -73 -45 -165zM897 278q0 150 86 256t254 105q125 0 203 -83t78 -222t-83 -249t-255 -110q-123 0 -203 76q-80 77 -80 227zM258 1108
q0 -92 41 -145t122 -53t130 66q49 67 49 171q0 197 -158 196q-94 1 -139 -71t-45 -164zM119 1096q0 150 86 256t254 106q125 0 203 -83t78 -222t-84 -249q-83 -110 -255 -109q-123 -1 -203 75t-79 226z" />
    <glyph glyph-name="ampersand" unicode="&#x26;" horiz-adv-x="1554" 
d="M262 383q0 -117 92 -196t234 -78q217 -1 375 157l-437 469q-117 -82 -176 -145q-88 -90 -88 -207zM434 1143q0 -47 26 -97t43 -72t66 -77q147 100 197 160t51 125q0 65 -49 108t-130 43q-80 0 -142 -47t-62 -143zM1149 719h-139l10 129h420l-13 -129h-139
q-12 -246 -147 -438l33 -39q63 -74 103 -100t85 -25h86l-12 -129h-101q-65 0 -107 19t-98 79l-83 90q-37 -38 -63 -60t-86 -60q-120 -76 -337 -76t-336 108t-119 272t130 297q61 61 215 164q-164 183 -164 315t93 229q92 97 254 97t243 -71q79 -72 79 -191t-84 -209
t-227 -178l408 -440q96 152 96 346z" />
    <glyph glyph-name="quotesingle" unicode="'" horiz-adv-x="569" 
d="M258 1481q0 111 78 110q78 0 78 -110q0 -68 -8 -162l-25 -260q-4 -53 -45 -53t-45 53l-25 260q-8 94 -8 162z" />
    <glyph glyph-name="parenleft" unicode="(" horiz-adv-x="681" 
d="M356 414q0 -545 230 -891l-113 -76q-137 195 -215 445t-78 527q0 279 128 605t372 590l102 -84q-198 -244 -312 -535t-114 -581z" />
    <glyph glyph-name="parenright" unicode=")" horiz-adv-x="681" 
d="M293 647q0 545 -230 891l113 76q137 -195 215 -445q78 -249 78 -527t-128 -604t-372 -591l-102 84q199 244 312 535q114 291 114 581z" />
    <glyph glyph-name="asterisk" unicode="*" horiz-adv-x="720" 
d="M352 1280l-221 111l76 108l182 -170l-8 246h129l-57 -244l4 -4l192 156l68 -113l-244 -90l221 -111l-76 -108l-182 170l8 -246h-129l58 244l-4 4l-193 -156l-67 113z" />
    <glyph glyph-name="plus" unicode="+" horiz-adv-x="1228" 
d="M545 0v449h-449v139h449v448h139v-448h449v-139h-449v-449h-139z" />
    <glyph glyph-name="comma" unicode="," horiz-adv-x="569" 
d="M225 -86q0 49 -34 100q-33 51 -33 92t36 74t88 33t92 -47t40 -133q0 -141 -86 -246t-232 -160l-55 94q184 76 184 193z" />
    <glyph glyph-name="hyphen" unicode="-" horiz-adv-x="757" 
d="M135 485l12 152h476l-13 -152h-475z" />
    <glyph glyph-name="period" unicode="." horiz-adv-x="569" 
d="M168 96q0 47 35 82t82 35t82 -35t35 -82t-36 -82q-34 -34 -81 -34t-82 34t-35 82z" />
    <glyph glyph-name="slash" unicode="/" horiz-adv-x="796" 
d="M-51 -102l809 1693l112 -55l-809 -1694z" />
    <glyph glyph-name="zero" unicode="0" 
d="M537 115q121 0 207 106q164 202 165 590q0 225 -69 367q-70 141 -230 141t-270 -193t-111 -532q0 -178 56 -313q31 -76 95 -121t157 -45zM1073 805q0 -381 -147 -605t-396 -225q-177 0 -311 121q-72 66 -113 193q-40 127 -40 298q1 338 125 591q65 128 180 204t267 76
t251 -87q100 -87 142 -229t42 -337z" />
    <glyph glyph-name="one" unicode="1" 
d="M215 0l10 129h269l102 1171l-4 5q-29 -37 -98 -80l-279 -168l-63 104l460 273h150l-113 -1305h295l-10 -129h-719z" />
    <glyph glyph-name="two" unicode="2" 
d="M856 1092q0 98 -69 162t-185 65q-116 0 -199 -79q-84 -79 -100 -191h-164q17 130 122 259q55 66 151 108t221 42q180 0 283 -105q104 -105 104 -251t-94 -295t-292 -347t-374 -327v-4q61 10 158 10h588l-13 -139h-936l13 129q131 102 358 322q428 410 428 641z" />
    <glyph glyph-name="three" unicode="3" 
d="M451 115q176 0 275 87t99 208q0 120 -95 192t-329 72h-51l12 129h25q201 0 322 91t120 224q0 96 -58 148t-175 53q-117 0 -193 -66t-94 -161h-155q14 138 136 252t337 114q151 0 259 -84t108 -241t-114 -259q-112 -102 -251 -116v-4q152 -8 256 -98t104 -242
q0 -188 -153 -314q-154 -125 -386 -125t-393 80l13 144q205 -84 381 -84z" />
    <glyph glyph-name="four" unicode="4" 
d="M516 0l10 129h140l24 311h-661l12 144l698 850h191l-72 -865h252l-10 -129h-254l-25 -311h164l-10 -129h-459zM264 569h438l60 703h-4l-568 -707q49 4 74 4z" />
    <glyph glyph-name="five" unicode="5" 
d="M406 115q203 0 305 100t102 238q0 171 -148 241t-483 82l64 658h737l-10 -140h-586l-41 -389q295 -14 463 -114t168 -326q0 -176 -132 -327q-145 -162 -441 -162q-158 0 -316 51l12 147q58 -23 152 -41t154 -18z" />
    <glyph glyph-name="six" unicode="6" 
d="M266 522q0 -176 75 -292t225 -116t234 102q83 100 83 236t-79 218t-206 82q-90 0 -178 -45t-154 -129v-56zM102 549q0 382 183 637q90 128 238 200t312 72t265 -39l-29 -131q-92 31 -201 31q-258 0 -406 -163t-198 -451l4 -5q125 180 359 181q188 0 303 -112t115 -295
t-110 -333q-53 -73 -149 -119t-219 -47q-239 0 -353 160t-114 414z" />
    <glyph glyph-name="seven" unicode="7" 
d="M182 1294l13 140h895l-11 -111l-647 -1118q-37 -66 -133 -205h-184q129 180 186 276l442 766q109 188 164 252h-725z" />
    <glyph glyph-name="eight" unicode="8" 
d="M877 354q0 102 -65 172t-253 158q-193 -92 -265 -165t-73 -178q0 -105 86 -171t245 -66t242 74t83 176zM877 1139q-1 88 -69 139t-192 51q-124 1 -202 -67t-78 -157t58 -151t192 -129q291 117 291 314zM57 336q0 268 394 418q-279 111 -279 338q0 172 130 269t330 97
t304 -91t104 -221t-90 -230t-252 -160q188 -82 266 -171t76 -212q0 -168 -131 -283t-360 -115q-229 -1 -361 91t-131 270z" />
    <glyph glyph-name="nine" unicode="9" 
d="M580 1458q123 0 215 -49t143 -134q102 -170 100 -394q0 -281 -101 -505q-54 -120 -135 -207t-206 -140q-126 -53 -276 -53t-271 32l29 139q113 -33 219 -32q262 0 405 182t172 463l-4 4q-41 -82 -138 -135t-206 -54q-180 0 -295 113q-115 112 -115 310t129 329
q128 131 335 131zM558 1319q-106 0 -196 -87q-90 -86 -90 -222t73 -216t193 -79q120 0 206 47q87 47 130 112q0 150 -54 281q-66 164 -262 164z" />
    <glyph glyph-name="colon" unicode=":" horiz-adv-x="569" 
d="M360 1057q47 0 82 -35t35 -82t-35 -82t-82 -35q-48 0 -82 35t-34 82t34 82t82 35zM274 213q47 0 82 -35t35 -82t-35 -82q-35 -34 -82 -34q-48 0 -82 34t-34 82q0 47 34 82t82 35z" />
    <glyph glyph-name="semicolon" unicode=";" horiz-adv-x="569" 
d="M360 1057q47 0 82 -35t35 -82t-35 -82t-82 -35q-48 0 -82 35t-34 82t34 82t82 35zM225 -86q0 49 -34 100q-33 51 -33 92t36 74t88 33t92 -47t40 -133q0 -141 -86 -246t-232 -160l-55 94q184 76 184 193z" />
    <glyph glyph-name="less" unicode="&#x3c;" horiz-adv-x="1228" 
d="M1133 1053v-140l-873 -395l873 -395v-139l-1037 471v129z" />
    <glyph glyph-name="equal" unicode="=" horiz-adv-x="1228" 
d="M96 244v139h1037v-139h-1037zM96 653v140h1037v-140h-1037z" />
    <glyph glyph-name="greater" unicode="&#x3e;" horiz-adv-x="1228" 
d="M96 -16v139l873 395l-873 395v140l1037 -471v-129z" />
    <glyph glyph-name="question" unicode="?" horiz-adv-x="985" 
d="M164 96q0 47 35 82t82 35t81 -35t35 -82q0 -47 -35 -82q-36 -34 -82 -34t-81 34t-35 82zM188 608q0 123 123 205l246 168q102 70 137 122t35 138q0 87 -61 149q-62 62 -194 62t-263 -45l-6 139q133 45 276 45q193 0 303 -99t109 -251q0 -217 -234 -364l-153 -99
q-92 -59 -123 -96q-76 -90 27 -186l-140 -66q-82 86 -82 178z" />
    <glyph glyph-name="at" unicode="@" horiz-adv-x="1638" 
d="M1071 463q0 -47 68 -47q88 0 169 124t81 283q0 217 -157 353t-380 135q-262 0 -432 -175t-170 -432t171 -419t415 -162q338 0 501 188h164q-84 -155 -257 -247t-408 -93q-328 0 -545 203q-217 202 -217 532t218 543t542 213t527 -173q204 -173 204 -441q-1 -141 -53 -256
q-52 -114 -132 -180q-165 -136 -315 -136q-149 0 -154 119h-4q-102 -119 -232 -119t-209 90t-79 234q0 213 134 376t297 163t243 -156l37 117h145l-139 -500q-33 -117 -33 -137zM999 797q0 190 -161 190q-125 0 -210 -117t-85 -252q0 -90 43 -140t114 -50q125 0 212 123
t87 246z" />
    <glyph glyph-name="A" unicode="A" horiz-adv-x="1517" 
d="M547 694h420l-109 406q-35 129 -47 205h-4q-14 -53 -82 -209zM-4 0l8 129h129l602 1305h189l368 -1305h150l-8 -129h-451l8 129h125l-117 436h-510l-192 -436h158l-9 -129h-450z" />
    <glyph glyph-name="B" unicode="B" horiz-adv-x="1214" 
d="M539 129q180 0 276 82t96 207q1 124 -75 196t-246 72h-189l-49 -557h187zM549 801q150 0 244 80t94 219q0 205 -285 205h-145l-45 -504h137zM616 1434q434 0 435 -322q-1 -154 -95 -251t-225 -109v-4q150 0 253 -82t103 -232q0 -194 -134 -314t-398 -120h-508l12 129h129
l105 1176h-164l12 129h475z" />
    <glyph glyph-name="C" unicode="C" horiz-adv-x="1327" 
d="M764 -29q-311 0 -485 175q-175 175 -175 500t186 564q90 117 242 185q152 67 338 67t373 -59l-16 -295h-140v190q-88 35 -210 35q-297 -1 -447 -197t-149 -507q0 -252 137 -390t362 -139q119 0 236 33l24 197h146l-31 -293q-205 -66 -391 -66z" />
    <glyph glyph-name="D" unicode="D" horiz-adv-x="1478" 
d="M731 1434q180 0 313 -48t207 -136q144 -169 144 -421q0 -385 -212 -607t-587 -222h-549l12 129h129l105 1176h-164l12 129h590zM592 129q293 0 460 185t167 511q0 479 -490 480h-272l-105 -1176h240z" />
    <glyph glyph-name="E" unicode="E" horiz-adv-x="1175" 
d="M47 0l12 129h129l105 1176h-164l12 129h932l-20 -326h-133l8 197h-471l-45 -504h481l-12 -129h-480l-49 -543h516l25 201h145l-32 -330h-959z" />
    <glyph glyph-name="F" unicode="F" horiz-adv-x="1099" 
d="M47 0l12 129h129l105 1176h-164l12 129h932l-20 -326h-133l8 197h-471l-47 -527h473l-13 -129h-471l-47 -520h164l-12 -129h-457z" />
    <glyph glyph-name="G" unicode="G" horiz-adv-x="1441" 
d="M1108 1108v190q-135 35 -250 35q-230 0 -397 -153q-84 -78 -132 -214t-48 -315q1 -233 123 -392t376 -159q127 0 256 43l33 353h-164l13 129h444l-12 -129h-133l-41 -449q-205 -76 -437 -76q-301 1 -468 179t-167 490t176 555q86 122 238 195q152 72 324 72t363 -50
q46 -11 59 -13l-17 -291h-139z" />
    <glyph glyph-name="H" unicode="H" horiz-adv-x="1517" 
d="M47 0l12 129h129l105 1176h-164l12 129h457l-12 -129h-129l-47 -527h708l47 527h-164l13 129h456l-12 -129h-129l-104 -1176h164l-13 -129h-456l12 129h129l47 520h-709l-47 -520h164l-12 -129h-457z" />
    <glyph glyph-name="I" unicode="I" horiz-adv-x="645" 
d="M47 0l12 129h129l105 1176h-164l12 129h457l-12 -129h-129l-105 -1176h164l-12 -129h-457z" />
    <glyph glyph-name="J" unicode="J" horiz-adv-x="645" 
d="M-168 -362l-59 114q239 123 333 284t113 435l74 834h-164l12 129h457l-12 -129h-129l-74 -832q-29 -330 -155 -522t-396 -313z" />
    <glyph glyph-name="K" unicode="K" horiz-adv-x="1327" 
d="M47 0l12 129h129l105 1176h-164l12 129h457l-12 -129h-129l-47 -527l598 527h-164l8 129h473l-8 -129h-117l-614 -555l565 -621h129l-8 -129h-481l8 129h139l-532 592l-54 -592h164l-12 -129h-457z" />
    <glyph glyph-name="L" unicode="L" horiz-adv-x="1062" 
d="M47 0l12 129h129l105 1176h-164l12 129h457l-12 -129h-129l-105 -1176h457l25 201h145l-33 -330h-899z" />
    <glyph glyph-name="M" unicode="M" horiz-adv-x="1857" 
d="M53 0l8 129h129l111 1176h-156l9 129h372l314 -1074q20 -70 43 -196h4q25 96 67 194l494 1076h356l-8 -129h-129l-88 -1176h164l-8 -129h-457l8 129h129l82 1085h-4q-4 -8 -22 -57t-46 -104l-483 -1053h-164l-303 1034q-23 72 -39 166h-4l-102 -1071h164l-9 -129h-432z
" />
    <glyph glyph-name="N" unicode="N" horiz-adv-x="1554" 
d="M406 1176q0 -74 -13 -234l-69 -813h163l-12 -129h-432l12 129h129l105 1176h-164l12 129h287l670 -1084q29 -47 47 -104l4 4q0 27 8 172l78 883h-164l12 129h432l-12 -129h-129l-117 -1305h-133l-657 1063q-43 68 -53 113h-4z" />
    <glyph glyph-name="O" unicode="O" horiz-adv-x="1478" 
d="M1198 813q0 260 -115 385t-299 125q-227 0 -365 -184t-138 -516q-1 -262 113 -387t298 -125q229 0 368 184q138 184 138 518zM799 1462q429 0 542 -404q33 -114 33 -249q0 -379 -194 -608t-502 -230q-199 -1 -331 93q-243 172 -243 556t193 613t502 229z" />
    <glyph glyph-name="P" unicode="P" 
d="M510 711q186 0 290 82q103 82 103 234q0 153 -80 215t-250 63h-116l-51 -588q31 -6 104 -6zM608 1434q459 0 459 -383q0 -183 -112 -318q-58 -71 -168 -111q-111 -40 -225 -40t-169 10l-41 -463h164l-12 -129h-457l12 129h129l105 1176h-164l12 129h467z" />
    <glyph glyph-name="Q" unicode="Q" horiz-adv-x="1478" 
d="M784 1323q-227 0 -365 -184t-138 -516q-1 -262 113 -387t298 -125q229 0 368 184q138 184 138 518q0 260 -115 385t-299 125zM1461 -393q-58 0 -135 32t-253 135t-270 139t-199 52q-250 39 -375 210t-125 450q0 379 193 608t502 229q429 0 542 -404q33 -114 33 -249
q0 -330 -143 -540t-357 -273v-4q70 -2 139 -30t195 -101q197 -115 293 -115q48 0 105 27l-11 -133q-76 -33 -134 -33z" />
    <glyph glyph-name="R" unicode="R" horiz-adv-x="1251" 
d="M905 1069q0 102 -71 169q-72 67 -224 67h-153l-49 -555h145q162 -2 257 85t95 234zM612 1434q457 0 457 -361q0 -183 -124 -289t-288 -108v-4q95 -14 141 -64t133 -228q87 -180 123 -216t103 -35h47v-129h-151q-49 0 -74 7t-61 51t-70 113q-35 69 -108 223t-117 197
q-45 44 -146 44h-80l-45 -506h164l-12 -129h-457l12 129h129l105 1176h-164l12 129h471z" />
    <glyph glyph-name="S" unicode="S" 
d="M233 356v-200q139 -45 292 -45q153 1 251 79t98 213q0 74 -54 129t-135 86t-175 69t-175 77t-135 113t-55 174q-1 180 137 296t382 115q147 0 360 -61l-12 -293h-133v190q-101 35 -241 35q-140 1 -228 -65t-88 -193q0 -159 257 -240q107 -34 215 -75t182 -125t75 -215
q0 -205 -151 -327t-371 -122t-441 70l12 315h133z" />
    <glyph glyph-name="T" unicode="T" horiz-adv-x="1251" 
d="M338 0l12 129h129l105 1176h-371l-25 -201h-139l25 330h1194l-25 -326h-139l8 197h-364l-105 -1176h164l-12 -129h-457z" />
    <glyph glyph-name="U" unicode="U" horiz-adv-x="1478" 
d="M691 111q193 0 294 93q100 93 119 292l72 809h-164l12 129h438l-12 -129h-129l-72 -820q-45 -514 -575 -514q-252 0 -373 114q-120 114 -102 368l73 852h-163l12 129h457l-13 -129h-129l-74 -838q-14 -176 61 -266t268 -90z" />
    <glyph glyph-name="V" unicode="V" horiz-adv-x="1441" 
d="M573 0l-352 1305h-155l12 129h461l-13 -129h-129l236 -932q35 -139 49 -234h4q18 70 72 193l411 973h-155l12 129h449l-13 -129h-129l-583 -1305h-177z" />
    <glyph glyph-name="W" unicode="W" horiz-adv-x="2123" 
d="M551 0l-338 1305h-156l13 129h460l-12 -129h-129l244 -1006q20 -76 31 -170h4q10 45 61 168l320 752l-68 256h-156l13 129h460l-12 -129h-129l236 -959q29 -121 34 -207h5q10 47 65 199l354 967h-155l12 129h449l-13 -129h-129l-510 -1305h-188l-209 838h-4l-365 -838
h-188z" />
    <glyph glyph-name="X" unicode="X" horiz-adv-x="1441" 
d="M23 0l8 129h129l481 612l-338 564h-139l8 129h457l-8 -129h-136q20 -25 33 -45l230 -394l301 394q20 27 41 45h-170l8 129h469l-8 -129h-129l-441 -553l371 -623h139l-8 -129h-463l8 129h135q-18 20 -34 51l-256 443l-336 -443q-18 -25 -45 -51h170l-8 -129h-469z" />
    <glyph glyph-name="Y" unicode="Y" horiz-adv-x="1366" 
d="M414 0l12 129h129l41 459l-416 717h-147l8 129h469l-8 -129h-131q6 -10 26 -45l299 -537l387 537q14 20 39 45h-170l9 129h456l-8 -129h-129l-522 -709l-39 -467h164l-13 -129h-456z" />
    <glyph glyph-name="Z" unicode="Z" horiz-adv-x="1251" 
d="M893 1305h-559l-29 -201h-139l24 330h1024l-10 -113l-833 -1063q-70 -86 -121 -129v-4q39 4 102 4h631l25 201h145l-33 -330h-1083l12 117l871 1100q31 40 55 62q24 23 29 30q-35 -4 -111 -4z" />
    <glyph glyph-name="bracketleft" unicode="[" horiz-adv-x="645" 
d="M119 -514l180 2089h360l-12 -129h-201l-161 -1831h194l-12 -129h-348z" />
    <glyph glyph-name="backslash" unicode="\" horiz-adv-x="796" 
d="M674 -158l-662 1694l117 55l662 -1693z" />
    <glyph glyph-name="bracketright" unicode="]" horiz-adv-x="645" 
d="M-47 -514l12 129h201l162 1831h-195l12 129h349l-181 -2089h-360z" />
    <glyph glyph-name="asciicircum" unicode="^" horiz-adv-x="1228" 
d="M182 686l371 748h123l371 -748h-140l-293 588l-292 -588h-140z" />
    <glyph glyph-name="underscore" unicode="_" horiz-adv-x="1024" 
d="M0 -256v102h1024v-102h-1024z" />
    <glyph glyph-name="grave" unicode="`" horiz-adv-x="569" 
d="M397 1217l-305 278l113 80l297 -277z" />
    <glyph glyph-name="a" unicode="a" 
d="M270 365q0 -233 123 -234q102 0 195 134q92 134 145 310t72 347q-65 26 -161 26t-174 -51q-138 -89 -181 -323q-19 -96 -19 -209zM106 370q0 182 56 334t133 228q145 145 387 145q117 0 225 -49h70q-39 -186 -84 -899h156l-13 -129h-307q29 346 78 528l-4 4
q-152 -553 -428 -552q-127 0 -198 104t-71 286z" />
    <glyph glyph-name="b" unicode="b" 
d="M868 695q0 243 -114 243q-146 0 -282 -239t-163 -560q61 -31 174 -30q181 -1 283 171t102 415zM772 1077q143 0 202 -108q58 -109 58 -282t-65 -339q-39 -100 -97 -180t-161 -134q-102 -54 -232 -54q-207 0 -338 71q22 132 65 655q44 523 64 740h-188l10 129h348
q-16 -141 -38 -464t-68 -542h4q66 244 179 376q114 132 257 132z" />
    <glyph glyph-name="c" unicode="c" horiz-adv-x="872" 
d="M582 948q-174 0 -261 -134t-87 -330t72 -281q73 -84 196 -84t270 78l-14 -146q-136 -71 -284 -71t-242 73q-93 74 -128 175t-34 223q0 272 134 449t384 177q131 0 235 -37l-20 -266h-133l8 162q-47 12 -96 12z" />
    <glyph glyph-name="d" unicode="d" 
d="M270 365q0 -233 123 -234q102 0 195 134q92 134 145 310t72 347q-65 26 -161 26t-174 -51q-138 -89 -181 -323q-19 -96 -19 -209zM644 1077q114 0 171 -20l33 389h-189l13 129h348l-127 -1446h156l-13 -129h-305q27 324 76 530h-4q-152 -551 -428 -550q-143 0 -206 111
q-63 113 -63 287t56 326t131 226q74 74 156 110q81 36 195 37z" />
    <glyph glyph-name="e" unicode="e" horiz-adv-x="948" 
d="M715 827q0 49 -40 85t-116 36q-139 0 -223 -120t-103 -304q233 28 357 100t125 203zM70 464q0 261 147 437t371 176q143 1 217 -69t74 -170q1 -178 -179 -287t-467 -141q0 -291 269 -291q150 0 297 94l-19 -156q-130 -77 -324 -77t-290 112t-96 372z" />
    <glyph glyph-name="f" unicode="f" horiz-adv-x="681" 
d="M721 1591q121 0 184 -26l-10 -127q-76 25 -154 24q-137 0 -215 -66t-96 -227l-12 -112h276l-10 -129h-274l-66 -834q-16 -209 -48 -332t-110 -196q-111 -104 -262 -105q-100 0 -188 31l10 137q70 -29 163 -29t172 68t107 432l66 828h-164l10 129h162l12 119
q20 215 122 315t325 100z" />
    <glyph glyph-name="g" unicode="g" horiz-adv-x="1099" 
d="M636 948q-98 0 -176 -50t-119 -137q-77 -159 -78 -389t120 -231q129 1 257 231t177 546q-83 30 -181 30zM371 -385q170 0 247 79q76 80 102 192t44 308t49 334l-4 4q-94 -257 -204 -387q-43 -51 -111 -92t-142 -41q-135 0 -194 104t-60 259q0 307 152 505t407 197
q80 0 256 -43h74q-18 -132 -42 -456t-46 -527q-33 -307 -147 -436t-359 -129q-76 0 -171 22t-152 54l6 149q125 -96 295 -96z" />
    <glyph glyph-name="h" unicode="h" horiz-adv-x="1175" 
d="M1008 809q0 -190 -70 -680h156l-13 -129h-315q10 85 48 386t38 390q0 88 -20 119t-70 31q-80 0 -158 -80t-132 -195q-112 -238 -134 -389l-43 -262h-156q62 435 97 913q36 479 43 533h-189l12 129h349q-9 -72 -27 -295q-45 -542 -94 -737l4 -4q57 215 191 377t280 161
q203 0 203 -268z" />
    <glyph glyph-name="i" unicode="i" horiz-adv-x="569" 
d="M367 1591q47 0 82 -35q35 -36 35 -82t-36 -81q-34 -35 -81 -35t-82 35t-35 82t35 81t82 35zM162 0l84 928h-164l12 129h322l-84 -928h155l-12 -129h-313z" />
    <glyph glyph-name="j" unicode="j" horiz-adv-x="606" 
d="M291 1475q0 47 35 81t82 35q48 0 82 -35q34 -36 34 -82t-35 -81t-81 -35t-82 35q-35 35 -35 82zM-121 -539l-47 117q137 48 209 106t115 172t61 316l70 756h-164l12 129h322l-78 -889q-32 -358 -159 -506q-68 -78 -146 -122t-195 -79z" />
    <glyph glyph-name="k" unicode="k" horiz-adv-x="1099" 
d="M782 1077q98 0 158 -61q61 -61 61 -139q1 -113 -83 -207t-182 -142t-187 -63q41 -28 150 -160q108 -133 149 -176h153l-12 -129h-248l-383 461q-16 -76 -51 -461h-155l127 1446h-189l12 129h349q-12 -111 -33 -403t-68 -490l4 -4q45 133 133 254q108 145 295 145z
M838 834q0 48 -31 76t-91 28t-122 -45q-106 -76 -180 -258q-29 -70 -45 -133q221 44 345 138t124 194z" />
    <glyph glyph-name="l" unicode="l" horiz-adv-x="569" 
d="M152 0l127 1446h-189l12 129h349l-127 -1446h155l-12 -129h-315z" />
    <glyph glyph-name="m" unicode="m" horiz-adv-x="1781" 
d="M997 813q0 -102 -18 -176l4 -4q53 180 169 312t249 132q203 0 203 -268q0 -145 -32 -388t-38 -292h156l-13 -129h-315q10 85 48 386t38 390q0 88 -20 119t-70 31q-102 0 -232 -204t-168 -450l-45 -272h-155q84 588 84 757t-94 169q-76 0 -165 -108t-156 -262t-87 -298
l-41 -258h-156q43 334 99 928h-164l12 129h322l-76 -514l4 -4q51 223 181 381t286 157q190 0 190 -264z" />
    <glyph glyph-name="n" unicode="n" horiz-adv-x="1175" 
d="M805 1077q203 0 203 -268q0 -190 -70 -680h156l-13 -129h-315q10 85 48 386t38 390q0 88 -20 119t-70 31q-80 0 -158 -80t-132 -195q-112 -238 -134 -389l-43 -262h-156q43 334 99 928h-164l12 129h322l-78 -516l4 -2q57 215 191 377t280 161z" />
    <glyph glyph-name="o" unicode="o" horiz-adv-x="1024" 
d="M233 444q0 -160 68 -242q67 -82 187 -83t211 115t92 378q0 160 -68 243q-67 83 -187 83t-212 -116t-91 -378zM70 451q0 266 130 446t359 180q106 0 186 -42q140 -74 189 -262q20 -81 20 -169q0 -270 -130 -447t-359 -177q-139 0 -233 73t-128 175t-34 223z" />
    <glyph glyph-name="p" unicode="p" 
d="M772 1077q143 0 202 -108q58 -109 58 -282t-65 -339q-39 -100 -97 -180t-161 -134q-102 -54 -206 -54t-206 20l-35 -385h164l-12 -129h-449l12 129h129l117 1313h-164l13 129h321q-8 -88 -32 -252t-29 -236l4 -4q66 246 179 379q114 133 257 133zM754 926
q-142 0 -280 -237t-165 -550q61 -31 174 -30q182 0 284 172q101 173 101 409t-114 236z" />
    <glyph glyph-name="q" unicode="q" 
d="M270 367q0 -236 123 -236q129 1 257 233t177 554q-83 30 -181 30t-176 -51q-138 -89 -181 -323q-19 -96 -19 -207zM362 -20q-116 0 -186 99t-70 290q0 313 152 511t422 197q94 0 240 -43h79q-28 -159 -72 -705q-43 -546 -59 -714h164l-12 -129h-449l13 129h129
q6 53 33 382t71 531h-4q-92 -272 -193 -410t-258 -138z" />
    <glyph glyph-name="r" unicode="r" horiz-adv-x="833" 
d="M723 1077q59 0 100 -10l-24 -149q-41 8 -70 8q-162 0 -261 -211t-155 -715h-155q41 327 60 598t24 330h-164l12 129h307q-29 -324 -49 -457l4 -4q49 236 133 358t238 123z" />
    <glyph glyph-name="s" unicode="s" horiz-adv-x="948" 
d="M427 109q118 0 178 53q61 54 61 122t-56 109t-137 70q-80 29 -160 61t-136 91q-56 60 -56 147q0 143 98 229q99 86 273 86t335 -55l-20 -266h-133l8 162q-78 30 -188 30t-164 -48t-54 -110t46 -98t149 -74l119 -45q119 -45 175 -98t56 -158q0 -165 -105 -251
q-104 -86 -288 -86t-358 65l20 266h133l-8 -161q94 -41 212 -41z" />
    <glyph glyph-name="t" unicode="t" horiz-adv-x="720" 
d="M449 119q102 0 219 63l-13 -145q-111 -57 -239 -57t-187 75q-59 76 -45 246l58 627h-170l10 129h172l25 264l155 6l-24 -270h301l-11 -129h-303l-57 -645q-16 -164 109 -164z" />
    <glyph glyph-name="u" unicode="u" horiz-adv-x="1214" 
d="M434 1057q-86 -674 -86 -767q0 -94 22 -126t68 -33q80 0 158 80t132 195q112 238 134 389l43 262h156q-43 -334 -98 -928h163l-12 -129h-321l77 516l-4 2q-57 -215 -191 -377t-280 -161q-203 0 -202 268q-1 150 31 384q32 235 38 296h-156l13 129h315z" />
    <glyph glyph-name="v" unicode="v" 
d="M494 119q133 0 236 211t132 598h-164l13 129h315q-78 -1077 -563 -1077q-145 0 -205 121q-59 122 -55 415q2 154 12 412h-164l12 129h328q-25 -479 -24 -541q-1 -236 27 -316t100 -81z" />
    <glyph glyph-name="w" unicode="w" horiz-adv-x="1705" 
d="M203 376q0 190 35 552h-164l12 129h330q-6 -76 -28 -324t-21 -357q1 -110 31 -178t109 -67q79 0 141 79q113 145 166 508q24 159 32 339h155q-4 -74 -19 -257q-15 -182 -15 -358q-1 -176 29 -244t108 -67q139 0 228 217t106 580h-164l12 129h307q-16 -445 -125 -745
q-57 -156 -156 -244q-98 -88 -234 -88t-191 116t-49 295h-4q-9 -89 -50 -171t-78 -130q-38 -47 -96 -79t-129 -31q-156 0 -217 103t-61 293z" />
    <glyph glyph-name="x" unicode="x" horiz-adv-x="1099" 
d="M43 0l12 119l416 422l-213 387h-164l12 129h261l229 -422l276 293h-163l12 129h336l-13 -119l-387 -397l224 -412h163l-12 -129h-256l-239 438l-297 -309h163l-12 -129h-348z" />
    <glyph glyph-name="y" unicode="y" horiz-adv-x="1099" 
d="M557 139h4q39 129 51 164l246 625h-176l12 129h326l-12 -129l-174 -428q-224 -557 -281 -663q-122 -226 -175 -274q-86 -81 -160 -93q-42 -8 -94 -8t-128 16l12 129q161 -47 261 36q65 52 137 199l61 129l-272 957h-156l12 129h287l194 -768q25 -92 25 -150z" />
    <glyph glyph-name="z" unicode="z" horiz-adv-x="1024" 
d="M698 928h-417l-13 -154h-131l17 283h796l-8 -107l-600 -739q-37 -47 -76 -82v-4q53 4 62 4h452l21 158h131l-25 -287h-833l14 121l586 717q55 70 84 90v4q-16 -4 -60 -4z" />
    <glyph glyph-name="braceleft" unicode="{" horiz-adv-x="645" 
d="M418 -385h90l-12 -129h-127q-190 0 -197 242q0 47 21 260q20 213 18 270q-2 205 -133 209l12 129q70 0 119 71t57 191l37 414q12 162 81 232t167 71h137l-12 -129h-101q-47 0 -73 -34t-34 -73q-7 -39 -13 -108l-35 -400q-15 -203 -157 -279q-28 -15 -50 -20v-4
q29 -6 61 -26t62 -82q31 -62 31 -150l-39 -514q0 -70 18 -106t72 -35z" />
    <glyph glyph-name="bar" unicode="|" horiz-adv-x="454" 
d="M158 -512v2048h139v-2048h-139z" />
    <glyph glyph-name="braceright" unicode="}" horiz-adv-x="645" 
d="M61 -514h-137l13 129h100q47 0 74 34q27 35 33 73t14 108l35 399q15 202 156 280q28 15 50 19v4q-29 6 -61 26t-62 82t-30 136t20 271q18 221 18 275t-18 88q-18 36 -71 36h-91l13 129h127q190 0 196 -242q0 -47 -20 -260t-19 -270q3 -205 134 -209l-13 -129
q-70 0 -119 -71t-57 -191l-37 -414q-12 -163 -81 -233t-167 -70z" />
    <glyph glyph-name="asciitilde" unicode="~" horiz-adv-x="1228" 
d="M395 655q95 1 239 -67t192 -68q74 0 137 72q20 25 51 70l73 -103q-39 -57 -67 -88t-78 -61q-51 -30 -122 -29q-70 0 -226 68t-205 67q-108 0 -174 -141l-74 102q92 178 254 178z" />
    <glyph glyph-name="uni00A0" unicode="&#xa0;" horiz-adv-x="569" 
 />
    <glyph glyph-name="exclamdown" unicode="&#xa1;" horiz-adv-x="606" 
d="M471 981q0 -47 -35 -82t-82 -35t-82 35t-34 82q0 47 34 82q35 35 82 35t82 -35t35 -82zM135 -498l109 1104h145l-78 -1104h-176z" />
    <glyph glyph-name="cent" unicode="&#xa2;" 
d="M311 486q-1 -163 53 -254t146 -107l74 819q-125 -18 -199 -156t-74 -302zM147 457q0 428 293 568q74 36 156 48l20 217h115l-20 -213q186 -4 280 -43l-20 -260h-133l8 158q-68 16 -148 16l-73 -833q170 2 301 80l-15 -150q-111 -59 -299 -70l-20 -245h-115l21 245
q-180 27 -266 144q-85 117 -85 338z" />
    <glyph glyph-name="sterling" unicode="&#xa3;" 
d="M268 684h-202l12 129h190v43q0 201 28 291t101 170q127 141 389 141q125 0 322 -49l-12 -293h-133v191q-72 23 -175 22q-367 0 -366 -397q0 -90 2 -119h315l-12 -129h-303q0 -248 -26 -371t-87 -184h549l25 201h145l-33 -330h-983l13 129h129q113 156 112 496v59z" />
    <glyph glyph-name="currency" unicode="&#xa4;" 
d="M201 717q1 -153 109 -261t260 -108t260 109t108 261t-109 260t-261 108t-259 -109q-108 -108 -108 -260zM61 718q0 177 109 308l-115 115l90 90l115 -113q133 106 310 106t309 -108l114 115l90 -90l-114 -115q109 -131 109 -308t-109 -310l114 -115l-90 -90l-114 114
q-131 -109 -309 -109t-312 107l-113 -112l-90 90l115 115q-109 133 -109 310z" />
    <glyph glyph-name="yen" unicode="&#xa5;" 
d="M330 0l12 129h104l21 205h-291l12 115h287l17 147h-285l12 115h215l-278 594h-123l12 129h391l-12 -129h-105l226 -510q23 -55 28 -84h5q10 35 49 94l307 500h-135l12 129h379l-12 -129h-105l-375 -594h232l-15 -115h-284l-17 -147h285l-14 -115h-279l-20 -205h135
l-12 -129h-379z" />
    <glyph glyph-name="brokenbar" unicode="&#xa6;" horiz-adv-x="454" 
d="M158 666v716h139v-716h-139zM158 -358v716h139v-716h-139z" />
    <glyph glyph-name="section" unicode="&#xa7;" 
d="M301 574q0 -66 43 -118t160 -118l125 -70q184 86 184 217q0 68 -49 123q-50 55 -197 133l-84 45q-82 -35 -132 -91t-50 -121zM470 -295q128 1 207 63t79 143t-62 137t-153 99t-181 91t-152 124t-62 182t72 186q73 80 175 108v4q-193 100 -192 284q0 123 109 230
q110 106 331 106q168 0 340 -51l-16 -262h-136l9 160q-94 25 -211 25t-190 -56t-73 -138t63 -139t151 -102t177 -94t151 -125t62 -184t-74 -184q-75 -77 -183 -89v-4q201 -96 200 -282q0 -159 -144 -271q-115 -90 -318 -90q-83 0 -189 18t-172 46l16 262h136l-9 -160
q111 -37 239 -37z" />
    <glyph glyph-name="dieresis" unicode="&#xa8;" horiz-adv-x="569" 
d="M49 1397q0 45 33 78t78 33t78 -34q32 -32 32 -77t-32 -78t-78 -33q-45 0 -78 33t-33 78zM469 1397q0 45 32 78t79 33q46 0 78 -34q32 -32 32 -77t-32 -78t-78 -33t-79 33q-32 33 -32 78z" />
    <glyph glyph-name="copyright" unicode="&#xa9;" horiz-adv-x="1638" 
d="M213 717q0 -256 177 -436q177 -181 429 -181t429 180t177 437q0 256 -177 436t-429 180t-429 -180t-177 -436zM74 717q0 309 218 527t527 218t527 -218t219 -527q0 -309 -218 -527q-217 -218 -527 -219q-310 1 -528 219t-218 527zM811 270q-167 0 -277 122t-110 327
t114 325t304 121q141 0 238 -81t118 -226h-164q-12 78 -62 123t-134 45q-119 0 -189 -84q-69 -84 -69 -224t70 -224t190 -84q80 0 136 46t64 132h164q-25 -146 -126 -232t-267 -86z" />
    <glyph glyph-name="ordfeminine" unicode="&#xaa;" horiz-adv-x="739" 
d="M217 1034q0 -133 76 -133q66 0 126 80q113 151 142 369q-43 16 -96 16q-131 0 -190 -99q-58 -100 -58 -233zM281 799q-178 0 -179 233q0 113 37 203t86 135q94 88 244 88q98 0 158 -24h51q-20 -101 -53 -527h102l-8 -92h-209q10 115 45 324h-4q-16 -78 -44 -147t-88 -131
t-138 -62z" />
    <glyph glyph-name="guillemotleft" unicode="&#xab;" horiz-adv-x="985" 
d="M487 520l13 107l311 288l90 -94l-268 -250l225 -270l-108 -94zM84 520l12 107l312 288l90 -94l-269 -250l226 -270l-109 -94z" />
    <glyph glyph-name="logicalnot" unicode="&#xac;" horiz-adv-x="1228" 
d="M96 653v140h1037v-574h-140v434h-897z" />
    <glyph glyph-name="uni00AD" unicode="&#xad;" horiz-adv-x="757" 
d="M135 485l12 152h476l-13 -152h-475z" />
    <glyph glyph-name="registered" unicode="&#xae;" horiz-adv-x="1638" 
d="M213 717q0 -256 177 -436q177 -181 429 -181t429 180t177 437q0 256 -177 436t-429 180t-429 -180t-177 -436zM74 717q0 309 218 527t527 218t527 -218t219 -527q0 -309 -218 -527q-217 -218 -527 -219q-310 1 -528 219t-218 527zM643 1012v-234h186q178 0 179 125
q0 109 -179 109h-186zM504 293v848h325q160 -1 239 -59t79 -185q0 -201 -217 -242l227 -362h-160l-223 356h-131v-356h-139z" />
    <glyph glyph-name="macron" unicode="&#xaf;" horiz-adv-x="569" 
d="M100 1329l11 129h512l-11 -129h-512z" />
    <glyph glyph-name="degree" unicode="&#xb0;" horiz-adv-x="819" 
d="M268 1167q0 -78 54 -132t133 -54q78 0 132 54t54 132t-54 132q-54 55 -132 55q-79 0 -133 -54t-54 -133zM164 1167q0 119 86 205t205 86t205 -86t85 -205q0 -119 -86 -205q-87 -86 -205 -85q-118 -1 -204 85t-86 205z" />
    <glyph glyph-name="plusminus" unicode="&#xb1;" horiz-adv-x="1228" 
d="M96 0v139h1037v-139h-1037zM545 233v332h-449v140h449v331h139v-331h449v-140h-449v-332h-139z" />
    <glyph glyph-name="two.superior" unicode="&#xb2;" horiz-adv-x="739" 
d="M545 1221q0 55 -38 89q-37 34 -103 34t-112 -44q-46 -43 -59 -98h-129q14 98 92 177t215 79t205 -64t68 -161q0 -96 -45 -164t-130 -151t-276 -236v-4q27 6 99 6h340l-10 -102h-607l8 100q31 27 142 117t182 159q158 158 158 263z" />
    <glyph glyph-name="three.superior" unicode="&#xb3;" horiz-adv-x="739" 
d="M308 680q109 0 170 42q60 42 61 103q0 141 -250 142h-33l8 114h17q125 0 193 45t67 115q0 102 -136 102t-161 -118h-131q8 92 90 163t231 70q102 0 174 -50t72 -146t-70 -157q-70 -60 -161 -69v-4q101 -4 165 -56t64 -157t-102 -179t-257 -75q-154 0 -260 45l9 119
q131 -49 240 -49z" />
    <glyph glyph-name="acute" unicode="&#xb4;" horiz-adv-x="569" 
d="M188 1298l344 277l105 -80l-358 -278z" />
    <glyph glyph-name="mu" unicode="&#xb5;" horiz-adv-x="1214" 
d="M434 1057q-86 -674 -86 -767q0 -94 22 -126t68 -33q80 0 158 80t132 195q112 238 134 389l43 262h156q-43 -334 -98 -928h163l-12 -129h-321l77 516l-4 2q-57 -215 -191 -377t-280 -161q-68 0 -100 32h-4l-58 -526h-139q98 926 168 1442h-156l13 129h315z" />
    <glyph glyph-name="paragraph" unicode="&#xb6;" horiz-adv-x="1228" 
d="M193 1024q0 203 131 306t333 104h502l-160 -1829h-163l147 1689h-215l-147 -1689h-164l94 1071q-158 0 -258 101t-100 247z" />
    <glyph glyph-name="periodcentered" unicode="&#xb7;" horiz-adv-x="569" 
d="M158 586q0 53 38 90t89 37t89 -37t38 -90t-38 -90t-89 -37t-89 37t-38 90z" />
    <glyph glyph-name="cedilla" unicode="&#xb8;" horiz-adv-x="569" 
d="M365 -154q69 0 115 -39t46 -98q0 -94 -76 -145t-162 -51q-87 0 -204 32l16 103q82 -33 150 -33q68 -1 102 21q35 22 35 55t-28 55q-27 22 -69 21q-42 0 -61 -5l29 238h113l-21 -154h15z" />
    <glyph glyph-name="one.superior" unicode="&#xb9;" horiz-adv-x="739" 
d="M154 582l10 102h172l65 639l-4 4q-29 -27 -73 -53l-162 -92l-39 90l291 170h129l-74 -758h180l-10 -102h-485z" />
    <glyph glyph-name="ordmasculine" unicode="&#xba;" horiz-adv-x="739" 
d="M571 1178q0 84 -44 131q-43 47 -117 47t-134 -67t-59 -212q0 -82 44 -129t118 -47t133 67t59 210zM102 1081q0 162 85 270q85 107 229 107t208 -84q62 -84 62 -200q0 -162 -85 -268t-229 -107q-144 1 -207 83t-63 199z" />
    <glyph glyph-name="guillemotright" unicode="&#xbb;" horiz-adv-x="985" 
d="M487 301l269 250l-226 270l109 94l262 -313l-12 -106l-311 -289zM84 301l268 250l-225 270l109 94l262 -313l-13 -106l-311 -289z" />
    <glyph glyph-name="onequarter" unicode="&#xbc;" horiz-adv-x="1708" 
d="M154 582l10 102h172l65 639l-4 4q-29 -27 -73 -53l-162 -92l-39 90l291 170h129l-74 -758h180l-10 -102h-485zM375 -43l938 1583l86 -63l-938 -1583zM1180 0l10 102h86l14 138h-436l12 118l432 502h187l-45 -506h145l-10 -114h-145l-15 -138h101l-11 -102h-325zM1069 354
h231l37 377h-4l-327 -379l4 -4q25 6 59 6z" />
    <glyph glyph-name="onehalf" unicode="&#xbd;" horiz-adv-x="1708" 
d="M1446 639q0 55 -38 89t-104 34t-111 -43q-46 -43 -58 -98h-129q14 98 91 177t215 79t206 -65t68 -161t-46 -164q-45 -69 -130 -151t-275 -236v-4q29 6 98 6h340l-10 -102h-607l9 100q31 27 145 120t178 157q158 158 158 262zM154 582l10 102h172l65 639l-4 4
q-29 -27 -73 -53l-162 -92l-39 90l291 170h129l-74 -758h180l-10 -102h-485zM375 -43l936 1583l86 -63l-936 -1583z" />
    <glyph glyph-name="threequarters" unicode="&#xbe;" horiz-adv-x="1708" 
d="M375 -43l938 1583l86 -63l-938 -1583zM372 680q110 0 170 42t60 103q0 141 -250 142h-33l9 114h16q125 0 193 45t67 115q0 102 -136 102t-161 -118h-131q8 92 90 163t232 70q102 0 174 -50t72 -146t-70 -157q-70 -60 -162 -69v-4q100 -4 165 -56t65 -157t-103 -179
q-102 -74 -256 -75q-154 0 -260 45l8 119q131 -49 241 -49zM1180 0l10 102h86l14 138h-436l12 118l432 502h187l-45 -506h145l-10 -114h-145l-15 -138h101l-11 -102h-325zM1069 354h231l37 377h-4l-327 -379l4 -4q25 6 59 6z" />
    <glyph glyph-name="questiondown" unicode="&#xbf;" horiz-adv-x="985" 
d="M791 981q0 -47 -35 -82t-82 -35t-82 35t-35 82t35 82t82 35t82 -35t35 -82zM766 469q0 -123 -123 -205l-246 -168q-102 -70 -137 -122t-35 -138q-1 -86 61 -148t194 -62t263 44l7 -139q-133 -45 -277 -45q-193 0 -303 99t-109 251q0 217 234 365l154 98q93 59 123 96
t30 85t-57 102l139 65q82 -86 82 -178z" />
    <glyph glyph-name="Agrave" unicode="&#xc0;" horiz-adv-x="1517" 
d="M872 1470l-305 279l113 80l297 -277zM547 694h420l-109 406q-35 129 -47 205h-4q-14 -53 -82 -209zM-4 0l8 129h129l602 1305h189l368 -1305h150l-8 -129h-451l8 129h125l-117 436h-510l-192 -436h158l-9 -129h-450z" />
    <glyph glyph-name="Aacute" unicode="&#xc1;" horiz-adv-x="1517" 
d="M664 1552l344 277l104 -80l-358 -279zM547 694h420l-109 406q-35 129 -47 205h-4q-14 -53 -82 -209zM-4 0l8 129h129l602 1305h189l368 -1305h150l-8 -129h-451l8 129h125l-117 436h-510l-192 -436h158l-9 -129h-450z" />
    <glyph glyph-name="Acircumflex" unicode="&#xc2;" horiz-adv-x="1517" 
d="M506 1599l285 230h139l248 -230l-105 -81l-221 196l-256 -196zM547 694h420l-109 406q-35 129 -47 205h-4q-14 -53 -82 -209zM-4 0l8 129h129l602 1305h189l368 -1305h150l-8 -129h-451l8 129h125l-117 436h-510l-192 -436h158l-9 -129h-450z" />
    <glyph glyph-name="Atilde" unicode="&#xc3;" horiz-adv-x="1517" 
d="M704 1757q64 0 155 -57q91 -58 121 -58t62 27t48 64l102 -70q-53 -86 -100 -118q-48 -32 -112 -32q-64 -1 -150 57t-119 58q-66 0 -105 -104l-114 51q27 78 87 130q61 52 125 52zM547 694h420l-109 406q-35 129 -47 205h-4q-14 -53 -82 -209zM-4 0l8 129h129l602 1305
h189l368 -1305h150l-8 -129h-451l8 129h125l-117 436h-510l-192 -436h158l-9 -129h-450z" />
    <glyph glyph-name="Adieresis" unicode="&#xc4;" horiz-adv-x="1517" 
d="M524 1651q0 45 33 78t78 33t78 -34q33 -32 33 -77t-34 -78q-32 -33 -77 -33t-78 33t-33 78zM944 1651q0 45 32 78t79 33t79 -34q32 -32 32 -77t-32 -78t-79 -33t-79 33t-32 78zM547 694h420l-109 406q-35 129 -47 205h-4q-14 -53 -82 -209zM-4 0l8 129h129l602 1305h189
l368 -1305h150l-8 -129h-451l8 129h125l-117 436h-510l-192 -436h158l-9 -129h-450z" />
    <glyph glyph-name="Aring" unicode="&#xc5;" horiz-adv-x="1517" 
d="M649 1659q1 91 57 153t151 62t138 -55t43 -129t-48 -145t-144 -71t-147 48q-50 47 -50 137zM936 1677q0 104 -80 105q-49 0 -77 -35q-27 -35 -27 -80q1 -102 84 -100q48 -1 74 33t26 77zM547 694h420l-109 406q-35 129 -47 205h-4q-14 -53 -82 -209zM-4 0l8 129h129
l602 1305h189l368 -1305h150l-8 -129h-451l8 129h125l-117 436h-510l-192 -436h158l-9 -129h-450z" />
    <glyph glyph-name="AE" unicode="&#xc6;" horiz-adv-x="1972" 
d="M6 0l8 129h117l793 1305h950l-21 -326h-133l9 197h-433l-47 -541h449l-8 -129h-453l-45 -506h516l25 201h145l-33 -330h-954l8 129h129l45 506h-467l-299 -506h156l-8 -129h-449zM682 764h403l48 541h-138z" />
    <glyph glyph-name="Ccedilla" unicode="&#xc7;" horiz-adv-x="1327" 
d="M815 -154q70 0 116 -39t46 -98q0 -94 -76 -145q-77 -51 -163 -51t-203 32l16 103q81 -33 149 -33q68 -1 103 21t35 55t-28 55t-70 21q-42 0 -60 -5l27 209q-285 19 -444 193t-159 490t186 556q90 117 242 185q152 67 338 67t373 -59l-16 -295h-140v190q-88 35 -210 35
q-297 -1 -447 -197t-149 -507q0 -252 137 -390t362 -139q119 0 236 33l24 197h146l-31 -293q-162 -53 -338 -66l-16 -125h14z" />
    <glyph glyph-name="Egrave" unicode="&#xc8;" horiz-adv-x="1175" 
d="M700 1470l-305 279l113 80l297 -277zM47 0l12 129h129l105 1176h-164l12 129h932l-20 -326h-133l8 197h-471l-45 -504h481l-12 -129h-480l-49 -543h516l25 201h145l-32 -330h-959z" />
    <glyph glyph-name="Eacute" unicode="&#xc9;" horiz-adv-x="1175" 
d="M492 1552l344 277l104 -80l-358 -279zM47 0l12 129h129l105 1176h-164l12 129h932l-20 -326h-133l8 197h-471l-45 -504h481l-12 -129h-480l-49 -543h516l25 201h145l-32 -330h-959z" />
    <glyph glyph-name="Ecircumflex" unicode="&#xca;" horiz-adv-x="1175" 
d="M334 1599l284 230h140l248 -230l-105 -81l-221 196l-256 -196zM47 0l12 129h129l105 1176h-164l12 129h932l-20 -326h-133l8 197h-471l-45 -504h481l-12 -129h-480l-49 -543h516l25 201h145l-32 -330h-959z" />
    <glyph glyph-name="Edieresis" unicode="&#xcb;" horiz-adv-x="1175" 
d="M352 1651q0 45 33 78t78 33t78 -34q33 -32 33 -77t-34 -78q-32 -33 -77 -33t-78 33t-33 78zM772 1651q0 45 32 78t79 33t79 -34q32 -32 32 -77t-32 -78t-79 -33t-79 33t-32 78zM47 0l12 129h129l105 1176h-164l12 129h932l-20 -326h-133l8 197h-471l-45 -504h481
l-12 -129h-480l-49 -543h516l25 201h145l-32 -330h-959z" />
    <glyph glyph-name="Igrave" unicode="&#xcc;" horiz-adv-x="645" 
d="M436 1470l-305 279l113 80l297 -277zM47 0l12 129h129l105 1176h-164l12 129h457l-12 -129h-129l-105 -1176h164l-12 -129h-457z" />
    <glyph glyph-name="Iacute" unicode="&#xcd;" horiz-adv-x="645" 
d="M227 1552l344 277l105 -80l-359 -279zM47 0l12 129h129l105 1176h-164l12 129h457l-12 -129h-129l-105 -1176h164l-12 -129h-457z" />
    <glyph glyph-name="Icircumflex" unicode="&#xce;" horiz-adv-x="645" 
d="M70 1599l284 230h140l247 -230l-104 -81l-221 196l-256 -196zM47 0l12 129h129l105 1176h-164l12 129h457l-12 -129h-129l-105 -1176h164l-12 -129h-457z" />
    <glyph glyph-name="Idieresis" unicode="&#xcf;" horiz-adv-x="645" 
d="M88 1651q0 45 32 78t79 33t79 -34q32 -32 32 -77t-32 -78t-79 -33t-79 33t-32 78zM508 1651q0 45 33 78t77 33t78 -34q33 -32 33 -77t-33 -78t-78 -33q-46 0 -78 33t-32 78zM47 0l12 129h129l105 1176h-164l12 129h457l-12 -129h-129l-105 -1176h164l-12 -129h-457z" />
    <glyph glyph-name="Eth" unicode="&#xd0;" horiz-adv-x="1478" 
d="M567 129q309 0 481 183q171 183 171 513q0 238 -123 359t-387 121h-252l-43 -492h321l-12 -129h-320l-51 -555h215zM717 1434q371 0 532 -184q146 -167 146 -421q0 -387 -214 -608t-597 -221h-537l12 129h129l52 555h-160l12 129h158l43 492h-164l12 129h576z" />
    <glyph glyph-name="Ntilde" unicode="&#xd1;" horiz-adv-x="1554" 
d="M722 1757q64 0 156 -57q92 -58 120 -58q30 0 62 27t48 64l102 -70q-53 -86 -100 -118q-48 -32 -112 -32q-64 -1 -150 57t-119 58q-65 0 -104 -104l-115 51q27 78 87 130q61 52 125 52zM406 1176q0 -74 -13 -234l-69 -813h163l-12 -129h-432l12 129h129l105 1176h-164
l12 129h287l670 -1084q29 -47 47 -104l4 4q0 27 8 172l78 883h-164l12 129h432l-12 -129h-129l-117 -1305h-133l-657 1063q-43 68 -53 113h-4z" />
    <glyph glyph-name="Ograve" unicode="&#xd2;" horiz-adv-x="1478" 
d="M852 1470l-305 279l112 80l297 -277zM1198 813q0 260 -115 385t-299 125q-227 0 -365 -184t-138 -516q-1 -262 113 -387t298 -125q229 0 368 184q138 184 138 518zM799 1462q429 0 542 -404q33 -114 33 -249q0 -379 -194 -608t-502 -230q-199 -1 -331 93
q-243 172 -243 556t193 613t502 229z" />
    <glyph glyph-name="Oacute" unicode="&#xd3;" horiz-adv-x="1478" 
d="M643 1552l344 277l105 -80l-359 -279zM1198 813q0 260 -115 385t-299 125q-227 0 -365 -184t-138 -516q-1 -262 113 -387t298 -125q229 0 368 184q138 184 138 518zM799 1462q429 0 542 -404q33 -114 33 -249q0 -379 -194 -608t-502 -230q-199 -1 -331 93
q-243 172 -243 556t193 613t502 229z" />
    <glyph glyph-name="Ocircumflex" unicode="&#xd4;" horiz-adv-x="1478" 
d="M485 1599l285 230h139l248 -230l-104 -81l-222 196l-256 -196zM1198 813q0 260 -115 385t-299 125q-227 0 -365 -184t-138 -516q-1 -262 113 -387t298 -125q229 0 368 184q138 184 138 518zM799 1462q429 0 542 -404q33 -114 33 -249q0 -379 -194 -608t-502 -230
q-199 -1 -331 93q-243 172 -243 556t193 613t502 229z" />
    <glyph glyph-name="Otilde" unicode="&#xd5;" horiz-adv-x="1478" 
d="M682 1757q64 0 156 -57q92 -58 122 -58t62 27t47 64l102 -70q-53 -86 -100 -118t-111 -32q-64 -1 -151 57q-86 58 -119 58q-65 0 -104 -104l-115 51q27 78 87 130t124 52zM1198 813q0 260 -115 385t-299 125q-227 0 -365 -184t-138 -516q-1 -262 113 -387t298 -125
q229 0 368 184q138 184 138 518zM799 1462q429 0 542 -404q33 -114 33 -249q0 -379 -194 -608t-502 -230q-199 -1 -331 93q-243 172 -243 556t193 613t502 229z" />
    <glyph glyph-name="Odieresis" unicode="&#xd6;" horiz-adv-x="1478" 
d="M504 1651q0 45 33 78t77 33t78 -34q33 -32 33 -77t-33 -78t-78 -33q-46 0 -78 33t-32 78zM924 1651q0 45 31 78q32 33 79 33t79 -34q32 -32 32 -77t-32 -78t-79 -33t-79 33q-31 33 -31 78zM1198 813q0 260 -115 385t-299 125q-227 0 -365 -184t-138 -516
q-1 -262 113 -387t298 -125q229 0 368 184q138 184 138 518zM799 1462q429 0 542 -404q33 -114 33 -249q0 -379 -194 -608t-502 -230q-199 -1 -331 93q-243 172 -243 556t193 613t502 229z" />
    <glyph glyph-name="multiply" unicode="&#xd7;" horiz-adv-x="1228" 
d="M520 518l-373 373l95 94l372 -373l373 373l94 -94l-372 -373l372 -373l-94 -94l-373 373l-372 -373l-95 94z" />
    <glyph glyph-name="Oslash" unicode="&#xd8;" horiz-adv-x="1478" 
d="M104 625q0 379 193 608t502 229q180 0 303 -76l188 281l96 -63l-192 -285q180 -173 180 -531t-194 -587t-502 -230q-195 0 -330 90l-160 -237l-96 63l170 252q-158 172 -158 486zM784 1323q-227 0 -365 -184t-138 -516q-1 -213 79 -338l656 972q-92 66 -232 66zM692 111
q229 0 368 184q138 184 138 518q0 240 -98 365l-662 -983q100 -84 254 -84z" />
    <glyph glyph-name="Ugrave" unicode="&#xd9;" horiz-adv-x="1478" 
d="M852 1470l-305 279l112 80l297 -277zM691 111q193 0 294 93q100 93 119 292l72 809h-164l12 129h438l-12 -129h-129l-72 -820q-45 -514 -575 -514q-252 0 -373 114q-120 114 -102 368l73 852h-163l12 129h457l-13 -129h-129l-74 -838q-14 -176 61 -266t268 -90z" />
    <glyph glyph-name="Uacute" unicode="&#xda;" horiz-adv-x="1478" 
d="M643 1552l344 277l105 -80l-359 -279zM691 111q193 0 294 93q100 93 119 292l72 809h-164l12 129h438l-12 -129h-129l-72 -820q-45 -514 -575 -514q-252 0 -373 114q-120 114 -102 368l73 852h-163l12 129h457l-13 -129h-129l-74 -838q-14 -176 61 -266t268 -90z" />
    <glyph glyph-name="Ucircumflex" unicode="&#xdb;" horiz-adv-x="1478" 
d="M485 1599l285 230h139l248 -230l-104 -81l-222 196l-256 -196zM691 111q193 0 294 93q100 93 119 292l72 809h-164l12 129h438l-12 -129h-129l-72 -820q-45 -514 -575 -514q-252 0 -373 114q-120 114 -102 368l73 852h-163l12 129h457l-13 -129h-129l-74 -838
q-14 -176 61 -266t268 -90z" />
    <glyph glyph-name="Udieresis" unicode="&#xdc;" horiz-adv-x="1478" 
d="M504 1651q0 45 33 78t77 33t78 -34q33 -32 33 -77t-33 -78t-78 -33q-46 0 -78 33t-32 78zM924 1651q0 45 31 78q32 33 79 33t79 -34q32 -32 32 -77t-32 -78t-79 -33t-79 33q-31 33 -31 78zM691 111q193 0 294 93q100 93 119 292l72 809h-164l12 129h438l-12 -129h-129
l-72 -820q-45 -514 -575 -514q-252 0 -373 114q-120 114 -102 368l73 852h-163l12 129h457l-13 -129h-129l-74 -838q-14 -176 61 -266t268 -90z" />
    <glyph glyph-name="Yacute" unicode="&#xdd;" horiz-adv-x="1366" 
d="M588 1552l344 277l104 -80l-358 -279zM414 0l12 129h129l41 459l-416 717h-147l8 129h469l-8 -129h-131q6 -10 26 -45l299 -537l387 537q14 20 39 45h-170l9 129h456l-8 -129h-129l-522 -709l-39 -467h164l-13 -129h-456z" />
    <glyph glyph-name="Thorn" unicode="&#xde;" 
d="M586 1188q459 0 458 -383q0 -184 -111 -318q-58 -71 -168 -111t-259 -40q-29 0 -133 12l-21 -219h164l-12 -129h-457l12 129h129l105 1176h-164l12 129h457l-12 -129h-129l-8 -117h137zM487 465q186 0 290 82q103 83 103 235t-79 214q-80 62 -250 63h-117l-51 -588
q31 -6 104 -6z" />
    <glyph glyph-name="germandbls" unicode="&#xdf;" horiz-adv-x="1251" 
d="M-117 -410q124 0 175 58q30 33 52 75q34 64 52 365l74 997q18 267 138 387t371 119q209 0 301 -84t91 -180q0 -174 -144 -277q-59 -44 -119 -83q-144 -93 -145 -181q0 -47 46 -85q46 -37 112 -69q65 -32 131 -70t112 -101t46 -146q0 -137 -94 -232t-277 -95
q-182 0 -313 45l8 258h147l-8 -150q78 -25 167 -25t151 46q63 46 63 120t-47 120t-114 77t-133 64t-114 88q-47 55 -47 130q0 134 147 238q60 43 122 85q148 101 147 212q0 80 -65 123t-185 43q-311 0 -336 -344l-90 -1214q-16 -221 -109 -332t-276 -111q-69 0 -184 33
l12 127q74 -31 135 -31z" />
    <glyph glyph-name="agrave" unicode="&#xe0;" 
d="M682 1217l-305 278l112 80l297 -277zM270 365q0 -233 123 -234q102 0 195 134q92 134 145 310t72 347q-65 26 -161 26t-174 -51q-138 -89 -181 -323q-19 -96 -19 -209zM106 370q0 182 56 334t133 228q145 145 387 145q117 0 225 -49h70q-39 -186 -84 -899h156l-13 -129
h-307q29 346 78 528l-4 4q-152 -553 -428 -552q-127 0 -198 104t-71 286z" />
    <glyph glyph-name="aacute" unicode="&#xe1;" 
d="M473 1298l344 277l105 -80l-359 -278zM270 365q0 -233 123 -234q102 0 195 134q92 134 145 310t72 347q-65 26 -161 26t-174 -51q-138 -89 -181 -323q-19 -96 -19 -209zM106 370q0 182 56 334t133 228q145 145 387 145q117 0 225 -49h70q-39 -186 -84 -899h156l-13 -129
h-307q29 346 78 528l-4 4q-152 -553 -428 -552q-127 0 -198 104t-71 286z" />
    <glyph glyph-name="acircumflex" unicode="&#xe2;" 
d="M315 1346l285 229h139l248 -229l-104 -82l-221 196l-256 -196zM270 365q0 -233 123 -234q102 0 195 134q92 134 145 310t72 347q-65 26 -161 26t-174 -51q-138 -89 -181 -323q-19 -96 -19 -209zM106 370q0 182 56 334t133 228q145 145 387 145q117 0 225 -49h70
q-39 -186 -84 -899h156l-13 -129h-307q29 346 78 528l-4 4q-152 -553 -428 -552q-127 0 -198 104t-71 286z" />
    <glyph glyph-name="atilde" unicode="&#xe3;" 
d="M512 1503q64 0 156 -57t122 -57q30 1 62 27t47 63l102 -70q-53 -86 -100 -118q-47 -31 -111 -31t-151 57q-86 57 -119 57q-65 0 -104 -104l-115 51q27 78 87 130t124 52zM270 365q0 -233 123 -234q102 0 195 134q92 134 145 310t72 347q-65 26 -161 26t-174 -51
q-138 -89 -181 -323q-19 -96 -19 -209zM106 370q0 182 56 334t133 228q145 145 387 145q117 0 225 -49h70q-39 -186 -84 -899h156l-13 -129h-307q29 346 78 528l-4 4q-152 -553 -428 -552q-127 0 -198 104t-71 286z" />
    <glyph glyph-name="adieresis" unicode="&#xe4;" 
d="M334 1397q0 45 32 78t78 33t79 -34q32 -32 32 -77t-32 -78t-79 -33q-46 0 -78 33t-32 78zM754 1397q0 45 32 78q33 33 78 33t78 -34q33 -32 33 -77t-33 -78t-78 -33t-78 33q-32 33 -32 78zM270 365q0 -233 123 -234q102 0 195 134q92 134 145 310t72 347q-65 26 -161 26
t-174 -51q-138 -89 -181 -323q-19 -96 -19 -209zM106 370q0 182 56 334t133 228q145 145 387 145q117 0 225 -49h70q-39 -186 -84 -899h156l-13 -129h-307q29 346 78 528l-4 4q-152 -553 -428 -552q-127 0 -198 104t-71 286z" />
    <glyph glyph-name="aring" unicode="&#xe5;" 
d="M667 1599q95 0 138 -55t43 -129q0 -75 -48 -145t-144 -70t-147 47q-50 47 -50 137t56 153q57 62 152 62zM745 1403q0 104 -79 104q-49 -1 -77 -35t-28 -80q0 -100 84 -100q47 0 74 34q26 34 26 77zM270 365q0 -233 123 -234q102 0 195 134q92 134 145 310t72 347
q-65 26 -161 26t-174 -51q-138 -89 -181 -323q-19 -96 -19 -209zM106 370q0 182 56 334t133 228q145 145 387 145q117 0 225 -49h70q-39 -186 -84 -899h156l-13 -129h-307q29 346 78 528l-4 4q-152 -553 -428 -552q-127 0 -198 104t-71 286z" />
    <glyph glyph-name="ae" unicode="&#xe6;" horiz-adv-x="1517" 
d="M70 358q0 330 145 525t375 194q90 0 173 -35t126 -77q125 113 272 113t217 -70q70 -68 70 -171t-57 -185q-96 -139 -339 -198q-95 -24 -192 -28q0 -168 58 -238t178 -69q72 -1 154 25t132 59l-18 -154q-170 -70 -313 -69q-197 0 -273 116t-57 287h-4q-64 -170 -138 -274
q-96 -131 -247 -129q-262 0 -262 378zM1284 823q0 63 -42 95t-112 30q-141 0 -201 -103t-69 -304q424 53 424 282zM233 392q0 -132 29 -196t113 -65q84 0 195 166q56 84 108 241q51 157 78 361q-66 49 -178 49t-193 -88q-82 -88 -117 -212t-35 -256z" />
    <glyph glyph-name="ccedilla" unicode="&#xe7;" horiz-adv-x="872" 
d="M582 948q-174 0 -261 -134t-87 -324q-1 -371 266 -371q125 0 272 78l-14 -146q-125 -66 -238 -71l-18 -134h14q70 0 116 -39t46 -98q0 -94 -76 -145t-162 -51t-204 32l16 103q82 -33 150 -33q68 -1 102 21q35 22 35 55t-28 55t-70 21q-42 0 -60 -5l27 218
q-119 14 -198 91q-142 139 -141 395q1 257 135 434t384 177q131 0 235 -37l-20 -266h-133l8 162q-47 12 -96 12z" />
    <glyph glyph-name="egrave" unicode="&#xe8;" horiz-adv-x="948" 
d="M588 1217l-305 278l112 80l297 -277zM715 827q0 49 -40 85t-116 36q-139 0 -223 -120t-103 -304q233 28 357 100t125 203zM70 464q0 261 147 437t371 176q143 1 217 -69t74 -170q1 -178 -179 -287t-467 -141q0 -291 269 -291q150 0 297 94l-19 -156q-130 -77 -324 -77
t-290 112t-96 372z" />
    <glyph glyph-name="eacute" unicode="&#xe9;" horiz-adv-x="948" 
d="M379 1298l344 277l104 -80l-358 -278zM715 827q0 49 -40 85t-116 36q-139 0 -223 -120t-103 -304q233 28 357 100t125 203zM70 464q0 261 147 437t371 176q143 1 217 -69t74 -170q1 -178 -179 -287t-467 -141q0 -291 269 -291q150 0 297 94l-19 -156q-130 -77 -324 -77
t-290 112t-96 372z" />
    <glyph glyph-name="ecircumflex" unicode="&#xea;" horiz-adv-x="948" 
d="M221 1346l285 229h139l248 -229l-105 -82l-221 196l-256 -196zM715 827q0 49 -40 85t-116 36q-139 0 -223 -120t-103 -304q233 28 357 100t125 203zM70 464q0 261 147 437t371 176q143 1 217 -69t74 -170q1 -178 -179 -287t-467 -141q0 -291 269 -291q150 0 297 94
l-19 -156q-130 -77 -324 -77t-290 112t-96 372z" />
    <glyph glyph-name="edieresis" unicode="&#xeb;" horiz-adv-x="948" 
d="M240 1397q0 45 31 78q32 33 79 33t79 -34q32 -32 32 -77t-32 -78t-79 -33t-79 33q-31 33 -31 78zM659 1397q0 45 33 78t78 33t78 -34q33 -32 33 -77t-33 -78t-78 -33t-78 33t-33 78zM715 827q0 49 -40 85t-116 36q-139 0 -223 -120t-103 -304q233 28 357 100t125 203z
M70 464q0 261 147 437t371 176q143 1 217 -69t74 -170q1 -178 -179 -287t-467 -141q0 -291 269 -291q150 0 297 94l-19 -156q-130 -77 -324 -77t-290 112t-96 372z" />
    <glyph glyph-name="igrave" unicode="&#xec;" horiz-adv-x="569" 
d="M397 1217l-305 278l113 80l297 -277zM162 0l84 928h-164l12 129h322l-84 -928h155l-12 -129h-313z" />
    <glyph glyph-name="iacute" unicode="&#xed;" horiz-adv-x="569" 
d="M188 1298l344 277l105 -80l-358 -278zM162 0l84 928h-164l12 129h322l-84 -928h155l-12 -129h-313z" />
    <glyph glyph-name="icircumflex" unicode="&#xee;" horiz-adv-x="569" 
d="M31 1346l284 229h140l247 -229l-104 -82l-221 196l-256 -196zM162 0l84 928h-164l12 129h322l-84 -928h155l-12 -129h-313z" />
    <glyph glyph-name="idieresis" unicode="&#xef;" horiz-adv-x="569" 
d="M49 1397q0 45 33 78t78 33t78 -34q32 -32 32 -77t-32 -78t-78 -33q-45 0 -78 33t-33 78zM469 1397q0 45 32 78t79 33q46 0 78 -34q32 -32 32 -77t-32 -78t-78 -33t-79 33q-32 33 -32 78zM162 0l84 928h-164l12 129h322l-84 -928h155l-12 -129h-313z" />
    <glyph glyph-name="eth" unicode="&#xf0;" horiz-adv-x="1024" 
d="M954 631q0 -291 -129 -471t-360 -180q-139 0 -233 73q-93 74 -128 175t-34 223q0 266 127 446t323 180t266 -151l5 4q-39 207 -185 391l-184 -102l-72 71l189 105q-78 82 -152 121l121 75q86 -57 154 -129l182 103l71 -72l-188 -104q227 -283 227 -758zM233 444
q0 -160 68 -242q67 -82 187 -83t211 115t92 378q0 160 -68 243q-67 83 -187 83t-212 -116t-91 -378z" />
    <glyph glyph-name="ntilde" unicode="&#xf1;" horiz-adv-x="1175" 
d="M490 1503q64 0 156 -57q91 -57 121 -57q29 1 61 27t49 63l102 -70q-53 -86 -100 -118q-110 -75 -263 26q-86 57 -118 57q-66 0 -105 -104l-114 51q27 78 87 130t124 52zM805 1077q203 0 203 -268q0 -190 -70 -680h156l-13 -129h-315q10 85 48 386t38 390q0 88 -20 119
t-70 31q-80 0 -158 -80t-132 -195q-112 -238 -134 -389l-43 -262h-156q43 334 99 928h-164l12 129h322l-78 -516l4 -2q57 215 191 377t280 161z" />
    <glyph glyph-name="ograve" unicode="&#xf2;" horiz-adv-x="1024" 
d="M625 1217l-306 278l113 80l297 -277zM233 444q0 -160 68 -242q67 -82 187 -83t211 115t92 378q0 160 -68 243q-67 83 -187 83t-212 -116t-91 -378zM70 451q0 266 130 446t359 180q106 0 186 -42q140 -74 189 -262q20 -81 20 -169q0 -270 -130 -447t-359 -177
q-139 0 -233 73t-128 175t-34 223z" />
    <glyph glyph-name="oacute" unicode="&#xf3;" horiz-adv-x="1024" 
d="M416 1298l344 277l104 -80l-358 -278zM233 444q0 -160 68 -242q67 -82 187 -83t211 115t92 378q0 160 -68 243q-67 83 -187 83t-212 -116t-91 -378zM70 451q0 266 130 446t359 180q106 0 186 -42q140 -74 189 -262q20 -81 20 -169q0 -270 -130 -447t-359 -177
q-139 0 -233 73t-128 175t-34 223z" />
    <glyph glyph-name="ocircumflex" unicode="&#xf4;" horiz-adv-x="1024" 
d="M258 1346l285 229h139l248 -229l-105 -82l-221 196l-256 -196zM233 444q0 -160 68 -242q67 -82 187 -83t211 115t92 378q0 160 -68 243q-67 83 -187 83t-212 -116t-91 -378zM70 451q0 266 130 446t359 180q106 0 186 -42q140 -74 189 -262q20 -81 20 -169
q0 -270 -130 -447t-359 -177q-139 0 -233 73t-128 175t-34 223z" />
    <glyph glyph-name="otilde" unicode="&#xf5;" horiz-adv-x="1024" 
d="M456 1503q64 0 155 -57t121 -57q30 1 62 27t48 63l102 -70q-53 -86 -100 -118q-48 -31 -112 -31t-150 57t-119 57q-66 0 -105 -104l-114 51q27 78 87 130q61 52 125 52zM233 444q0 -160 68 -242q67 -82 187 -83t211 115t92 378q0 160 -68 243q-67 83 -187 83t-212 -116
t-91 -378zM70 451q0 266 130 446t359 180q106 0 186 -42q140 -74 189 -262q20 -81 20 -169q0 -270 -130 -447t-359 -177q-139 0 -233 73t-128 175t-34 223z" />
    <glyph glyph-name="odieresis" unicode="&#xf6;" horiz-adv-x="1024" 
d="M276 1397q0 45 32 78t79 33t79 -34q32 -32 32 -77t-32 -78t-79 -33t-79 33t-32 78zM696 1397q0 45 33 78t78 33t78 -34q33 -32 33 -77t-33 -78t-78 -33t-78 33t-33 78zM233 444q0 -160 68 -242q67 -82 187 -83t211 115t92 378q0 160 -68 243q-67 83 -187 83t-212 -116
t-91 -378zM70 451q0 266 130 446t359 180q106 0 186 -42q140 -74 189 -262q20 -81 20 -169q0 -270 -130 -447t-359 -177q-139 0 -233 73t-128 175t-34 223z" />
    <glyph glyph-name="divide" unicode="&#xf7;" horiz-adv-x="1228" 
d="M487 103q0 51 37 89t90 38t91 -37q37 -37 37 -91t-39 -90q-38 -37 -90 -37t-89 38t-37 90zM487 934q0 53 37 90t90 37q52 0 90 -37t38 -90t-38 -90q-36 -37 -90 -37t-90 37q-37 37 -37 90zM96 449v139h1037v-139h-1037z" />
    <glyph glyph-name="oslash" unicode="&#xf8;" horiz-adv-x="1024" 
d="M70 451q0 266 130 446t359 180q131 0 215 -61l144 217l86 -59l-152 -228q102 -131 102 -342q0 -270 -130 -447t-359 -177q-125 0 -215 59l-144 -215l-86 59l152 230q-102 131 -102 338zM477 119q131 -1 222 115t92 378q0 115 -35 189l-420 -633q57 -49 141 -49zM547 938
q-131 0 -222 -116t-92 -378q0 -112 35 -186l422 633q-59 47 -143 47z" />
    <glyph glyph-name="ugrave" unicode="&#xf9;" horiz-adv-x="1214" 
d="M721 1217l-305 278l112 80l297 -277zM434 1057q-86 -674 -86 -767q0 -94 22 -126t68 -33q80 0 158 80t132 195q112 238 134 389l43 262h156q-43 -334 -98 -928h163l-12 -129h-321l77 516l-4 2q-57 -215 -191 -377t-280 -161q-203 0 -202 268q-1 150 31 384q32 235 38 296
h-156l13 129h315z" />
    <glyph glyph-name="uacute" unicode="&#xfa;" horiz-adv-x="1214" 
d="M512 1298l344 277l105 -80l-359 -278zM434 1057q-86 -674 -86 -767q0 -94 22 -126t68 -33q80 0 158 80t132 195q112 238 134 389l43 262h156q-43 -334 -98 -928h163l-12 -129h-321l77 516l-4 2q-57 -215 -191 -377t-280 -161q-203 0 -202 268q-1 150 31 384
q32 235 38 296h-156l13 129h315z" />
    <glyph glyph-name="ucircumflex" unicode="&#xfb;" horiz-adv-x="1214" 
d="M330 1346l284 229h140l247 -229l-104 -82l-221 196l-256 -196zM434 1057q-86 -674 -86 -767q0 -94 22 -126t68 -33q80 0 158 80t132 195q112 238 134 389l43 262h156q-43 -334 -98 -928h163l-12 -129h-321l77 516l-4 2q-57 -215 -191 -377t-280 -161q-203 0 -202 268
q-1 150 31 384q32 235 38 296h-156l13 129h315z" />
    <glyph glyph-name="udieresis" unicode="&#xfc;" horiz-adv-x="1214" 
d="M348 1397q0 45 33 78t78 33t78 -34q33 -32 33 -77t-34 -78q-32 -33 -77 -33t-78 33t-33 78zM768 1397q0 45 32 78t79 33t79 -34q32 -32 31 -77q0 -45 -32 -78q-33 -33 -79 -33t-78 33t-32 78zM434 1057q-86 -674 -86 -767q0 -94 22 -126t68 -33q80 0 158 80t132 195
q112 238 134 389l43 262h156q-43 -334 -98 -928h163l-12 -129h-321l77 516l-4 2q-57 -215 -191 -377t-280 -161q-203 0 -202 268q-1 150 31 384q32 235 38 296h-156l13 129h315z" />
    <glyph glyph-name="yacute" unicode="&#xfd;" horiz-adv-x="1099" 
d="M455 1298l344 277l104 -80l-358 -278zM557 139h4q39 129 51 164l246 625h-176l12 129h326l-12 -129l-174 -428q-224 -557 -281 -663q-122 -226 -175 -274q-86 -81 -160 -93q-42 -8 -94 -8t-128 16l12 129q161 -47 261 36q65 52 137 199l61 129l-272 957h-156l12 129h287
l194 -768q25 -92 25 -150z" />
    <glyph glyph-name="thorn" unicode="&#xfe;" 
d="M772 1077q143 0 202 -108q58 -109 58 -282t-65 -339q-39 -100 -97 -180t-161 -134q-102 -54 -206 -54t-206 20l-35 -385h164l-12 -129h-449l12 129h129l162 1831h-190l12 129h350q-50 -517 -77 -739t-31 -267l4 -4q66 246 179 379q114 133 257 133zM754 926
q-142 0 -280 -237t-165 -550q61 -31 174 -30q182 0 284 172q101 173 101 409t-114 236z" />
    <glyph glyph-name="ydieresis" unicode="&#xff;" horiz-adv-x="1099" 
d="M274 1397q0 45 33 78t78 33t78 -34q33 -32 33 -77t-33 -78t-78 -33t-78 33t-33 78zM694 1397q0 45 32 78t79 33t79 -34q32 -32 32 -77t-32 -78t-79 -33t-79 33t-32 78zM557 139h4q39 129 51 164l246 625h-176l12 129h326l-12 -129l-174 -428q-224 -557 -281 -663
q-122 -226 -175 -274q-86 -81 -160 -93q-42 -8 -94 -8t-128 16l12 129q161 -47 261 36q65 52 137 199l61 129l-272 957h-156l12 129h287l194 -768q25 -92 25 -150z" />
    <glyph glyph-name="dotlessi" unicode="&#x131;" horiz-adv-x="569" 
d="M162 0l84 928h-164l12 129h322l-84 -928h155l-12 -129h-313z" />
    <glyph glyph-name="Lslash" unicode="&#x141;" horiz-adv-x="1062" 
d="M47 0l12 129h129l37 414l-149 -101l16 158l148 98l53 607h-164l12 129h457l-12 -129h-129l-43 -490l358 238l-14 -156l-359 -238l-47 -530h457l25 201h145l-33 -330h-899z" />
    <glyph glyph-name="lslash" unicode="&#x142;" horiz-adv-x="569" 
d="M23 575l10 142l194 127l52 602h-189l12 129h349l-52 -617l181 117l-9 -139l-184 -121l-63 -686h155l-12 -129h-315l63 702z" />
    <glyph glyph-name="OE" unicode="&#x152;" horiz-adv-x="1972" 
d="M870 1317q-272 -1 -431 -187t-158 -495q0 -518 512 -518q102 0 200 12l105 1176q-123 12 -228 12zM1051 0q-150 0 -230 -6t-108 -6q-139 0 -248 38t-175 99q-182 167 -184 513q-2 345 192 576t540 232q90 0 164 -6t124 -6h752l-20 -326h-134l9 197h-471l-45 -504h481
l-12 -129h-482l-47 -543h516l25 201h145l-33 -330h-759z" />
    <glyph glyph-name="oe" unicode="&#x153;" horiz-adv-x="1593" 
d="M1145 119q156 0 297 82l-15 -154q-47 -27 -140 -47t-175 -20q-293 0 -332 262h-4q-20 -109 -112 -186t-220 -76q-168 0 -271 122t-103 318t47 336t158 230q112 91 274 91q115 1 200 -69t103 -195h4q21 79 97 162q97 103 297 103q110 0 192 -66q82 -64 82 -172t-62 -192
q-103 -138 -360 -195q-98 -23 -197 -27q0 -307 240 -307zM1360 813q0 55 -39 95t-119 40q-135 0 -216 -105t-81 -302q455 47 455 272zM460 119q106 0 174 77q68 76 92 194t24 288q0 270 -213 270q-137 0 -221 -126t-83 -384q0 -131 61 -225q60 -94 166 -94z" />
    <glyph glyph-name="Scaron" unicode="&#x160;" 
d="M584 1507l-248 230l104 82l222 -197l256 197l90 -82l-285 -230h-139zM233 356v-200q139 -45 292 -45q153 1 251 79t98 213q0 74 -54 129t-135 86t-175 69t-175 77t-135 113t-55 174q-1 180 137 296t382 115q147 0 360 -61l-12 -293h-133v190q-101 35 -241 35
q-140 1 -228 -65t-88 -193q0 -159 257 -240q107 -34 215 -75t182 -125t75 -215q0 -205 -151 -327t-371 -122t-441 70l12 315h133z" />
    <glyph glyph-name="scaron" unicode="&#x161;" horiz-adv-x="948" 
d="M489 1253l-247 230l104 82l221 -197l256 197l90 -82l-284 -230h-140zM427 109q118 0 178 53q61 54 61 122t-56 109t-137 70q-80 29 -160 61t-136 91q-56 60 -56 147q0 143 98 229q99 86 273 86t335 -55l-20 -266h-133l8 162q-78 30 -188 30t-164 -48t-54 -110t46 -98
t149 -74l119 -45q119 -45 175 -98t56 -158q0 -165 -105 -251q-104 -86 -288 -86t-358 65l20 266h133l-8 -161q94 -41 212 -41z" />
    <glyph glyph-name="Ydieresis" unicode="&#x178;" horiz-adv-x="1366" 
d="M449 1651q0 45 31 78q32 33 79 33t79 -34q32 -32 32 -77t-32 -78t-79 -33t-79 33q-31 33 -31 78zM868 1651q0 45 33 78t78 33t78 -34q33 -32 33 -77t-33 -78t-78 -33t-78 33t-33 78zM414 0l12 129h129l41 459l-416 717h-147l8 129h469l-8 -129h-131q6 -10 26 -45
l299 -537l387 537q14 20 39 45h-170l9 129h456l-8 -129h-129l-522 -709l-39 -467h164l-13 -129h-456z" />
    <glyph glyph-name="Zcaron" unicode="&#x17d;" horiz-adv-x="1251" 
d="M641 1507l-248 230l105 82l221 -197l256 197l90 -82l-285 -230h-139zM893 1305h-559l-29 -201h-139l24 330h1024l-10 -113l-833 -1063q-70 -86 -121 -129v-4q39 4 102 4h631l25 201h145l-33 -330h-1083l12 117l871 1100q31 40 55 62q24 23 29 30q-35 -4 -111 -4z" />
    <glyph glyph-name="zcaron" unicode="&#x17e;" horiz-adv-x="1024" 
d="M485 1253l-247 230l104 82l221 -197l256 197l90 -82l-284 -230h-140zM698 928h-417l-13 -154h-131l17 283h796l-8 -107l-600 -739q-37 -47 -76 -82v-4q53 4 62 4h452l21 158h131l-25 -287h-833l14 121l586 717q55 70 84 90v4q-16 -4 -60 -4z" />
    <glyph glyph-name="florin" unicode="&#x192;" 
d="M969 1329q-162 0 -232 -86t-90 -311l-10 -119h293l-10 -129h-289l-45 -518q-16 -195 -46 -293t-94 -164q-102 -109 -284 -108q-88 0 -150 22l8 127q76 -20 128 -20q115 0 163 55q88 94 111 346l45 553h-207l10 129h203l10 141q17 258 123 381t334 123q114 0 186 -31
l-8 -127q-76 29 -149 29z" />
    <glyph glyph-name="circumflex" unicode="&#x2c6;" horiz-adv-x="569" 
d="M31 1346l284 229h140l247 -229l-104 -82l-221 196l-256 -196z" />
    <glyph glyph-name="caron" unicode="&#x2c7;" horiz-adv-x="569" 
d="M299 1253l-248 230l105 82l221 -197l256 197l90 -82l-285 -230h-139z" />
    <glyph glyph-name="uni02C9" unicode="&#x2c9;" horiz-adv-x="569" 
d="M100 1329l11 129h512l-11 -129h-512z" />
    <glyph glyph-name="breve" unicode="&#x2d8;" horiz-adv-x="569" 
d="M380 1374q142 0 204 166l121 -55q-104 -240 -333 -240t-323 246l127 55q62 -172 204 -172z" />
    <glyph glyph-name="dotaccent" unicode="&#x2d9;" horiz-adv-x="569" 
d="M352 1507q45 -1 78 -33t33 -77t-33 -78t-78 -33t-78 33t-32 78q0 45 32 78q33 32 78 32z" />
    <glyph glyph-name="ring" unicode="&#x2da;" horiz-adv-x="569" 
d="M382 1599q95 0 138 -55t43 -129q0 -75 -48 -145q-49 -70 -145 -70t-146 47t-50 137t56 153q57 62 152 62zM461 1403q0 104 -80 104q-49 -1 -77 -35t-28 -80q0 -100 84 -100q47 0 74 34t27 77z" />
    <glyph glyph-name="ogonek" unicode="&#x2db;" horiz-adv-x="569" 
d="M360 -254q0 -119 88 -119t154 72l-8 -96q-90 -90 -209 -90q-68 -1 -116 37t-48 122q0 158 164 328h96q-121 -135 -121 -254z" />
    <glyph glyph-name="tilde" unicode="&#x2dc;" horiz-adv-x="569" 
d="M228 1503q65 0 156 -57t121 -57q29 1 61 27t48 63l103 -70q-53 -86 -101 -118q-110 -74 -262 26q-86 57 -118 57q-66 0 -105 -104l-115 51q27 78 87 130t125 52z" />
    <glyph glyph-name="hungarumlaut" unicode="&#x2dd;" horiz-adv-x="569" 
d="M399 1298l344 277l105 -82l-359 -276zM-18 1298l344 277l104 -82l-358 -276z" />
    <glyph glyph-name="uni03A9" unicode="&#x3a9;" horiz-adv-x="1476" 
d="M798 1327q-208 0 -350 -168q-142 -169 -163 -401t55 -409t197 -259l-7 -90h-489l10 121h307l2 6q-113 106 -177 271q-65 165 -48 368q27 301 219 494q193 192 457 192t414 -200t125 -476q-16 -209 -114 -380t-224 -269l-2 -6h311l-10 -121h-490l8 90q139 86 245 257
q104 171 124 397t-86 405q-106 178 -314 178z" />
    <glyph glyph-name="uni03BC" unicode="&#x3bc;" horiz-adv-x="1214" 
d="M434 1057q-86 -674 -86 -767q0 -94 22 -126t68 -33q80 0 158 80t132 195q112 238 134 389l43 262h156q-43 -334 -98 -928h163l-12 -129h-321l77 516l-4 2q-57 -215 -191 -377t-280 -161q-68 0 -100 32h-4l-58 -526h-139q98 926 168 1442h-156l13 129h315z" />
    <glyph glyph-name="pi" unicode="&#x3c0;" horiz-adv-x="1165" 
d="M342 1063h813l-25 -127h-167l-56 -635q-16 -195 4 -301h-143q-27 61 -8 289l57 647h-377q-30 -223 -100 -512t-133 -424h-146q70 158 138 438t94 498q-162 0 -232 -27l-14 99q96 55 295 55z" />
    <glyph glyph-name="endash" unicode="&#x2013;" horiz-adv-x="1024" 
d="M-12 492l12 139h1024l-12 -139h-1024z" />
    <glyph glyph-name="emdash" unicode="&#x2014;" horiz-adv-x="2048" 
d="M-12 492l12 139h2048l-12 -139h-2048z" />
    <glyph glyph-name="quoteleft" unicode="&#x2018;" horiz-adv-x="569" 
d="M426 1111q0 -40 -36 -73q-36 -32 -89 -32t-92 47t-39 133q0 142 85 246t232 159l56 -94q-184 -76 -185 -192q0 -51 34 -103t34 -91z" />
    <glyph glyph-name="quoteright" unicode="&#x2019;" horiz-adv-x="569" 
d="M293 1292q0 50 -34 102t-34 92t36 73t89 33t92 -48q39 -47 39 -133q0 -141 -85 -245t-232 -160l-55 94q184 76 184 192z" />
    <glyph glyph-name="quotesinglbase" unicode="&#x201a;" horiz-adv-x="569" 
d="M215 106q0 41 36 74t89 33t92 -47t39 -133q0 -141 -85 -246t-232 -160l-56 94q184 76 185 193q0 49 -34 100t-34 92z" />
    <glyph glyph-name="quotedblleft" unicode="&#x201c;" horiz-adv-x="909" 
d="M803 1111q0 -40 -36 -73q-36 -32 -89 -32t-92 47t-39 133q0 142 85 246t232 159l56 -94q-184 -76 -185 -192q0 -51 34 -103t34 -91zM322 1305q0 -51 34 -103t33 -91q0 -40 -36 -73q-36 -32 -89 -32t-92 47t-39 133q0 141 85 246q86 104 233 159l55 -94
q-184 -76 -184 -192z" />
    <glyph glyph-name="quotedblright" unicode="&#x201d;" horiz-adv-x="909" 
d="M680 1292q0 50 -34 102t-34 92t36 73t89 33t92 -48q39 -47 39 -133q0 -141 -85 -245t-232 -160l-55 94q184 76 184 192zM266 1292q0 50 -34 102q-66 100 2 165q36 33 89 33t93 -48q40 -47 39 -133q0 -141 -85 -246q-86 -104 -233 -159l-55 94q184 76 184 192z" />
    <glyph glyph-name="quotedblbase" unicode="&#x201e;" horiz-adv-x="909" 
d="M659 -86q0 49 -33 100q-34 51 -34 92t36 74t89 33t92 -47t39 -133q0 -141 -86 -246t-232 -160l-55 94q184 76 184 193zM178 106q0 41 36 74t89 33t92 -47t39 -133q0 -141 -85 -246t-232 -160l-56 94q184 76 185 193q0 49 -34 100t-34 92z" />
    <glyph glyph-name="dagger" unicode="&#x2020;" 
d="M100 893l13 129h415l33 412h156l-33 -412h416l-13 -129h-415l-105 -1288h-155l104 1288h-416z" />
    <glyph glyph-name="daggerdbl" unicode="&#x2021;" 
d="M528 969l37 465h156l-37 -465h416l-13 -129h-415l-49 -598h417l-12 -129h-416l-41 -508h-155l41 508h-416l12 129h414l49 598h-416l13 129h415z" />
    <glyph glyph-name="bullet" unicode="&#x2022;" horiz-adv-x="1024" 
d="M154 717q0 150 104 254t254 104t254 -104t104 -254t-104 -254q-104 -105 -254 -105t-254 104t-104 255z" />
    <glyph glyph-name="ellipsis" unicode="&#x2026;" horiz-adv-x="2048" 
d="M1589 96q0 47 35 82t82 35t82 -35t35 -82t-35 -82q-35 -34 -82 -34t-82 34t-35 82zM907 96q0 47 35 82t82 35t82 -35t35 -82t-35 -82q-35 -34 -82 -34t-82 34t-35 82zM225 96q0 47 35 82t82 35t82 -35t35 -82t-35 -82q-35 -34 -82 -34t-82 34t-35 82z" />
    <glyph glyph-name="perthousand" unicode="&#x2030;" horiz-adv-x="2275" 
d="M41 -39l1397 1589l90 -77l-1397 -1590zM1667 288q0 -92 41 -145t122 -53t130 67t49 171q0 197 -158 196q-94 0 -139 -72t-45 -164zM1810 -25q-122 0 -202 76q-80 77 -80 227t86 256t254 105q125 0 203 -83q77 -83 77 -222t-83 -249t-255 -110zM969 288q0 -92 41 -145
q42 -53 122 -53t130 67q49 67 49 171q0 197 -158 196q-94 0 -139 -72t-45 -164zM829 278q0 150 86 256t254 105q125 0 203 -83t78 -222t-83 -249t-255 -110q-123 0 -203 76q-80 77 -80 227zM258 1108q0 -92 41 -145t122 -53t130 66q49 67 49 171q0 197 -158 196
q-94 1 -139 -71t-45 -164zM119 1096q0 150 86 256t254 106q125 0 203 -83t78 -222t-84 -249q-83 -110 -255 -109q-123 -1 -203 75t-79 226z" />
    <glyph glyph-name="guilsinglleft" unicode="&#x2039;" horiz-adv-x="606" 
d="M96 520l13 107l311 288l90 -94l-268 -250l225 -270l-109 -94z" />
    <glyph glyph-name="guilsinglright" unicode="&#x203a;" horiz-adv-x="606" 
d="M96 301l269 250l-226 270l109 94l262 -313l-12 -106l-312 -289z" />
    <glyph glyph-name="fraction" unicode="&#x2044;" horiz-adv-x="342" 
d="M-340 -43l936 1583l86 -63l-936 -1583z" />
    <glyph glyph-name="Euro" unicode="&#x20ac;" 
d="M1016 1102v192q-100 33 -178 33q-350 0 -459 -403h661l-82 -127h-604q-8 -63 -8 -125h559l-84 -127h-471q43 -432 420 -432q150 0 322 82l-15 -162q-176 -61 -323 -62q-516 0 -578 574h-149l84 127h63q4 86 10 125h-157l86 127h96q141 535 620 534q134 0 324 -57
l-14 -299h-123z" />
    <glyph glyph-name="afii61289" unicode="&#x2113;" horiz-adv-x="989" 
d="M602 1464q-70 0 -130 -88t-75 -278l-41 -461q352 348 375 606q20 221 -129 221zM500 -14q-164 0 -238 108t-67 273q2 8 2 26q-85 -68 -125 -98l-39 88q158 125 174 141l49 561q23 256 124 373t227 117q127 0 183 -92t44 -238q-31 -342 -490 -753l-6 -68q-12 -162 45 -242
t151 -80t172 60q79 60 130 141l65 -63q-158 -254 -401 -254z" />
    <glyph glyph-name="trademark" unicode="&#x2122;" horiz-adv-x="2027" 
d="M1718 582v671h-4l-252 -671h-114l-252 671h-4v-671h-164v852h256l221 -596l229 596h248v-852h-164zM336 582v712h-252v140h680v-140h-252v-712h-176z" />
    <glyph glyph-name="Omega" unicode="&#x2126;" horiz-adv-x="1476" 
d="M798 1327q-208 0 -350 -168q-142 -169 -163 -401t55 -409t197 -259l-7 -90h-489l10 121h307l2 6q-113 106 -177 271q-65 165 -48 368q27 301 219 494q193 192 457 192t414 -200t125 -476q-16 -209 -114 -380t-224 -269l-2 -6h311l-10 -121h-490l8 90q139 86 245 257
q104 171 124 397t-86 405q-106 178 -314 178z" />
    <glyph glyph-name="estimated" unicode="&#x212e;" horiz-adv-x="1851" 
d="M1481 750v405q0 27 -21 47q-216 211 -502 211t-499 -217q-20 -18 -21 -51v-395q0 -14 11 -15h1021q11 1 11 15zM1782 696h-1333q-10 0 -11 -8v-403q0 -27 17 -47q215 -220 519 -220t517 246h119q-113 -133 -285 -210t-367 -77q-342 1 -582 217t-241 523q0 307 241 524
q240 217 582 217t583 -217t241 -526v-19z" />
    <glyph glyph-name="partialdiff" unicode="&#x2202;" horiz-adv-x="1114" 
d="M440 106h2q141 0 249 153t151 372q-23 83 -99 155q-77 72 -195 72t-219 -118t-115 -278t47 -258q62 -98 179 -98zM582 1602q206 0 340 -201t100 -573q-33 -372 -193 -608t-413 -236q-127 0 -212 70q-162 134 -138 403q20 231 161 375t320 145q125 0 209 -66t114 -133h2
q6 33 11 90q23 270 -75 442t-255 170q-156 0 -285 -98l-43 107q151 113 357 113z" />
    <glyph glyph-name="Delta" unicode="&#x2206;" horiz-adv-x="1325" 
d="M162 121h889l-232 794q-10 43 -52 185t-52 196h-8q-12 -39 -75 -174t-79 -174zM2 0l10 102l635 1364h170l391 -1364l-10 -102h-1196z" />
    <glyph glyph-name="product" unicode="&#x220f;" horiz-adv-x="1490" 
d="M1438 1294h-226v-1491h-145v1491h-582v-1491h-143v1491h-225v133h1321v-133z" />
    <glyph glyph-name="summation" unicode="&#x2211;" horiz-adv-x="1191" 
d="M1149 -197h-1038v99l553 710l-529 713v102h983v-127h-780v-6l493 -661l-532 -684v-8h850v-138z" />
    <glyph glyph-name="minus" unicode="&#x2212;" horiz-adv-x="1228" 
d="M96 449v139h1037v-139h-1037z" />
    <glyph glyph-name="uni2215" unicode="&#x2215;" horiz-adv-x="342" 
d="M-340 -43l936 1583l86 -63l-936 -1583z" />
    <glyph glyph-name="uni2219" unicode="&#x2219;" horiz-adv-x="569" 
d="M158 586q0 53 38 90t89 37t89 -37t38 -90t-38 -90t-89 -37t-89 37t-38 90z" />
    <glyph glyph-name="radical" unicode="&#x221a;" horiz-adv-x="1230" 
d="M1233 1696l-455 -2003h-131l-328 952l-153 -57l-31 90l275 106l266 -770q25 -94 35 -145h2q11 55 26 145l383 1682h111z" />
    <glyph glyph-name="infinity" unicode="&#x221e;" horiz-adv-x="1605" 
d="M1196 817h-2q-49 1 -101 -27t-82 -55t-80 -81t-61 -62q115 -127 183 -178q69 -52 153 -52t141 68q56 68 56 165t-58 160q-59 62 -149 62zM440 362h2q107 0 228 121q71 71 92 99q-148 183 -236 218q-45 17 -98 17q-94 -1 -150 -69t-56 -163t62 -159q60 -64 156 -64z
M1503 594v-2q0 -140 -93 -232q-92 -92 -202 -92t-194 58t-199 188q-68 -78 -114 -122q-45 -44 -121 -84t-154 -40q-125 0 -214 92t-89 228t91 228q92 91 212 91q120 -1 208 -65t187 -180q123 135 178 174q98 72 219 72t203 -88q82 -87 82 -226z" />
    <glyph glyph-name="integral" unicode="&#x222b;" horiz-adv-x="790" 
d="M213 -213q166 0 166 403q0 168 -14 526t-15 517q0 322 109 432q74 80 190 80q58 0 111 -29l-27 -102q-33 20 -87 20t-91 -47q-70 -80 -70 -366q-1 -158 13 -511t14 -522q0 -281 -88 -413q-66 -102 -199 -103q-82 0 -133 35l27 107q47 -27 94 -27z" />
    <glyph glyph-name="approxequal" unicode="&#x2248;" horiz-adv-x="1169" 
d="M811 287q-57 0 -105 18t-153 78q-105 59 -173 59t-113 -40q-46 -40 -93 -113l-63 51q98 195 280 195q64 -1 105 -19q42 -18 82 -40t44 -24t26 -16q99 -57 174 -57q104 0 190 153l61 -55q-100 -190 -262 -190zM391 881q89 0 231 -85q98 -59 135 -65t78 -6q90 0 177 154
l61 -54q-100 -193 -262 -192q-57 0 -105 18t-153 78q-187 107 -287 20q-45 -40 -92 -114l-63 53q100 193 280 193z" />
    <glyph glyph-name="notequal" unicode="&#x2260;" horiz-adv-x="1185" 
d="M1081 827v-96h-364l-139 -301h503v-96h-542l-111 -242l-78 35l96 207h-309v96h350l138 301h-488v96h527l108 238l78 -35l-94 -203h325z" />
    <glyph glyph-name="lessequal" unicode="&#x2264;" horiz-adv-x="1198" 
d="M1094 12h-944v101h944v-101zM1090 197l-928 460v101l928 463v-117l-824 -391v-6l824 -396v-114z" />
    <glyph glyph-name="greaterequal" unicode="&#x2265;" horiz-adv-x="1198" 
d="M1094 12h-942v101h942v-101zM164 1221l926 -463v-101l-926 -460v114l821 396v4l-821 393v117z" />
    <glyph glyph-name="lozenge" unicode="&#x25ca;" horiz-adv-x="1234" 
d="M987 709l-297 581q-23 51 -39 105h-4q-23 -68 -41 -105l-295 -573l299 -584q25 -53 37 -104h6q20 68 37 102zM1122 713l-415 -805h-119l-410 805l414 807h119z" />
    <glyph glyph-name="A.sc" unicode="&#xe000;" horiz-adv-x="1099" 
d="M582 981l-187 -438h299l-108 438h-4zM-49 0l10 119h102l451 991h176l285 -991h121l-11 -119h-426l11 119h129l-78 305h-373l-129 -305h152l-11 -119h-409z" />
    <glyph glyph-name="AE.sc" unicode="&#xe001;" horiz-adv-x="1441" 
d="M659 983l-233 -371h295l33 371h-95zM-37 119l633 983h750l-7 -279h-122l-7 160h-301l-28 -371h327l-10 -118h-332l-28 -375h360l33 170h119l-43 -289h-758l10 119h123l31 375h-355l-231 -375h147l-10 -119h-409l10 119h98z" />
    <glyph glyph-name="Aacute.sc" unicode="&#xe002;" horiz-adv-x="1099" 
d="M455 1298l344 277l104 -80l-358 -278zM582 981l-187 -438h299l-108 438h-4zM-49 0l10 119h102l451 991h176l285 -991h121l-11 -119h-426l11 119h129l-78 305h-373l-129 -305h152l-11 -119h-409z" />
    <glyph glyph-name="Acircumflex.sc" unicode="&#xe003;" horiz-adv-x="1099" 
d="M297 1346l285 229h139l248 -229l-105 -82l-221 196l-256 -196zM582 981l-187 -438h299l-108 438h-4zM-49 0l10 119h102l451 991h176l285 -991h121l-11 -119h-426l11 119h129l-78 305h-373l-129 -305h152l-11 -119h-409z" />
    <glyph glyph-name="Adieresis.sc" unicode="&#xe004;" horiz-adv-x="1099" 
d="M315 1397q0 45 33 78t78 33t78 -34q33 -32 33 -77t-33 -78t-78 -33t-78 33t-33 78zM735 1397q0 45 32 78t79 33t79 -34q31 -32 31 -77t-32 -78t-78 -33q-47 0 -79 33t-32 78zM582 981l-187 -438h299l-108 438h-4zM-49 0l10 119h102l451 991h176l285 -991h121l-11 -119
h-426l11 119h129l-78 305h-373l-129 -305h152l-11 -119h-409z" />
    <glyph glyph-name="Agrave.sc" unicode="&#xe005;" horiz-adv-x="1099" 
d="M664 1217l-306 278l113 80l297 -277zM582 981l-187 -438h299l-108 438h-4zM-49 0l10 119h102l451 991h176l285 -991h121l-11 -119h-426l11 119h129l-78 305h-373l-129 -305h152l-11 -119h-409z" />
    <glyph glyph-name="Aring.sc" unicode="&#xe006;" horiz-adv-x="1099" 
d="M440 1384q0 90 56 152t152 63q95 0 138 -55t43 -129q0 -75 -48 -145t-144 -70q-197 0 -197 184zM727 1403q0 104 -80 104q-49 -1 -77 -35t-28 -80q1 -100 85 -100q47 0 73 34t27 77zM582 981l-187 -438h299l-108 438h-4zM-49 0l10 119h102l451 991h176l285 -991h121
l-11 -119h-426l11 119h129l-78 305h-373l-129 -305h152l-11 -119h-409z" />
    <glyph glyph-name="Atilde.sc" unicode="&#xe007;" horiz-adv-x="1099" 
d="M494 1503q64 0 156 -57q91 -57 121 -57q30 1 62 27t48 63l102 -70q-53 -86 -100 -118q-47 -31 -111 -31t-151 57q-86 57 -119 57q-66 0 -105 -104l-114 51q27 78 87 130t124 52zM582 981l-187 -438h299l-108 438h-4zM-49 0l10 119h102l451 991h176l285 -991h121l-11 -119
h-426l11 119h129l-78 305h-373l-129 -305h152l-11 -119h-409z" />
    <glyph glyph-name="B.sc" unicode="&#xe008;" horiz-adv-x="1024" 
d="M479 637q123 0 183 64q59 65 59 138q0 144 -162 144h-137l-31 -346h88zM510 119q111 0 170 62t59 159q0 178 -219 178h-135l-35 -399h160zM877 860q0 -112 -78 -180q-78 -70 -205 -88v-4q301 0 301 -254q0 -134 -99 -234t-298 -100h-437l11 119h123l71 864h-151l10 119
h438q156 2 235 -64t79 -178z" />
    <glyph glyph-name="C.sc" unicode="&#xe009;" horiz-adv-x="1062" 
d="M252 510q0 -403 375 -404q66 0 153 25l29 158h119l-25 -256q-105 -55 -333 -55t-355 140q-127 142 -127 374q0 276 158 454t422 178q139 0 307 -39l-6 -270h-123l-6 158q-70 23 -183 22q-181 0 -293 -130t-112 -355z" />
    <glyph glyph-name="Ccedilla.sc" unicode="&#xe00a;" horiz-adv-x="1062" 
d="M496 -385q68 -1 102 21q35 22 35 55t-28 55q-27 22 -69 21q-42 0 -61 -5l27 220q-203 26 -308 162t-106 348q0 276 158 454t422 178q139 0 307 -39l-6 -270h-123l-6 158q-70 23 -183 22q-181 0 -293 -130t-112 -355q0 -403 375 -404q66 0 153 25l29 158h119l-25 -256
q-90 -49 -289 -56l-18 -131h14q70 0 116 -39t46 -98q0 -94 -76 -145t-186 -51q-63 -1 -180 32l16 103q82 -33 150 -33z" />
    <glyph glyph-name="D.sc" unicode="&#xe00b;" horiz-adv-x="1214" 
d="M682 1102q205 0 331 -119t126 -371t-153 -432t-406 -180h-519l11 119h123l71 864h-151l10 119h557zM573 119q178 0 290 139t112 345t-92 293t-226 87h-235l-72 -864h223z" />
    <glyph glyph-name="E.sc" unicode="&#xe00c;" horiz-adv-x="985" 
d="M61 0l11 119h123l71 864h-151l10 119h768l-6 -279h-123l-6 160h-336l-31 -356h357l-11 -119h-356l-31 -389h361l32 170h119l-43 -289h-758z" />
    <glyph glyph-name="Eacute.sc" unicode="&#xe00d;" horiz-adv-x="985" 
d="M397 1298l344 277l105 -80l-359 -278zM61 0l11 119h123l71 864h-151l10 119h768l-6 -279h-123l-6 160h-336l-31 -356h357l-11 -119h-356l-31 -389h361l32 170h119l-43 -289h-758z" />
    <glyph glyph-name="Ecircumflex.sc" unicode="&#xe00e;" horiz-adv-x="985" 
d="M240 1346l284 229h140l247 -229l-104 -82l-221 196l-256 -196zM61 0l11 119h123l71 864h-151l10 119h768l-6 -279h-123l-6 160h-336l-31 -356h357l-11 -119h-356l-31 -389h361l32 170h119l-43 -289h-758z" />
    <glyph glyph-name="Edieresis.sc" unicode="&#xe00f;" horiz-adv-x="985" 
d="M258 1397q0 45 33 78t78 33t77 -34q32 -32 33 -77q0 -45 -33 -78q-34 -33 -78 -33t-77 33t-33 78zM678 1397q0 45 32 78t78 33t79 -34q32 -32 32 -77t-32 -78t-79 -33q-46 0 -78 33t-32 78zM61 0l11 119h123l71 864h-151l10 119h768l-6 -279h-123l-6 160h-336l-31 -356
h357l-11 -119h-356l-31 -389h361l32 170h119l-43 -289h-758z" />
    <glyph glyph-name="Egrave.sc" unicode="&#xe010;" horiz-adv-x="985" 
d="M606 1217l-305 278l113 80l297 -277zM61 0l11 119h123l71 864h-151l10 119h768l-6 -279h-123l-6 160h-336l-31 -356h357l-11 -119h-356l-31 -389h361l32 170h119l-43 -289h-758z" />
    <glyph glyph-name="Eth.sc" unicode="&#xe011;" horiz-adv-x="1214" 
d="M573 119q178 0 290 139t112 345t-92 293t-226 87h-235l-29 -356h291l-8 -119h-293l-33 -389h223zM682 1102q205 0 331 -119t126 -371t-153 -432t-406 -180h-519l11 119h123l32 389h-137l8 119h140l28 356h-151l10 119h557z" />
    <glyph glyph-name="F.sc" unicode="&#xe012;" horiz-adv-x="909" 
d="M61 0l11 119h123l71 864h-151l10 119h768l-6 -279h-123l-6 160h-336l-31 -371h354l-10 -118h-354l-31 -375h152l-10 -119h-431z" />
    <glyph glyph-name="G.sc" unicode="&#xe013;" 
d="M989 815h-127l-4 162q-74 18 -201 18q-181 0 -293 -130t-112 -355q0 -403 375 -404q90 0 170 27l22 232h-155l10 118h411l-10 -118h-117l-34 -334q-156 -53 -342 -54q-240 -1 -367 141t-127 374q0 276 158 454t422 178q159 0 321 -43v-266z" />
    <glyph glyph-name="H.sc" unicode="&#xe014;" horiz-adv-x="1290" 
d="M61 0l11 119h123l71 864h-151l10 119h430l-10 -119h-123l-31 -371h518l31 371h-152l11 119h430l-10 -119h-123l-72 -864h152l-11 -119h-430l10 119h123l31 375h-518l-31 -375h152l-10 -119h-431z" />
    <glyph glyph-name="I.sc" unicode="&#xe015;" horiz-adv-x="645" 
d="M76 0l10 119h123l72 864h-152l10 119h430l-10 -119h-123l-71 -864h151l-10 -119h-430z" />
    <glyph glyph-name="Iacute.sc" unicode="&#xe016;" horiz-adv-x="645" 
d="M227 1298l344 277l105 -80l-359 -278zM76 0l10 119h123l72 864h-152l10 119h430l-10 -119h-123l-71 -864h151l-10 -119h-430z" />
    <glyph glyph-name="Icircumflex.sc" unicode="&#xe017;" horiz-adv-x="645" 
d="M70 1346l284 229h140l247 -229l-104 -82l-221 196l-256 -196zM76 0l10 119h123l72 864h-152l10 119h430l-10 -119h-123l-71 -864h151l-10 -119h-430z" />
    <glyph glyph-name="Idieresis.sc" unicode="&#xe018;" horiz-adv-x="645" 
d="M88 1397q0 45 32 78t79 33t79 -34q32 -32 32 -77t-32 -78t-79 -33t-79 33t-32 78zM508 1397q0 45 33 78t77 33t78 -34q33 -32 33 -77t-33 -78t-78 -33q-46 0 -78 33t-32 78zM76 0l10 119h123l72 864h-152l10 119h430l-10 -119h-123l-71 -864h151l-10 -119h-430z" />
    <glyph glyph-name="Igrave.sc" unicode="&#xe019;" horiz-adv-x="645" 
d="M436 1217l-305 278l113 80l297 -277zM76 0l10 119h123l72 864h-152l10 119h430l-10 -119h-123l-71 -864h151l-10 -119h-430z" />
    <glyph glyph-name="J.sc" unicode="&#xe01a;" horiz-adv-x="569" 
d="M252 983h-152l11 119h430l-11 -119h-122l-62 -747q-16 -209 -116 -334t-281 -211l-51 112q162 87 220 183t75 280z" />
    <glyph glyph-name="K.sc" unicode="&#xe01b;" 
d="M61 0l11 119h123l71 864h-151l10 119h430l-10 -119h-123l-33 -395l453 395h-137l10 119h407l-10 -119h-90l-469 -418l403 -446h115l-10 -119h-432l10 119h133l-387 422l-35 -422h152l-10 -119h-431z" />
    <glyph glyph-name="L.sc" unicode="&#xe01c;" horiz-adv-x="909" 
d="M76 0l10 119h123l72 864h-152l10 119h430l-10 -119h-123l-71 -864h356l33 170h123l-43 -289h-758z" />
    <glyph glyph-name="Lslash.sc" unicode="&#xe01d;" horiz-adv-x="909" 
d="M76 0l10 119h123l24 299l-139 -96l8 131l142 98l37 432h-152l10 119h430l-10 -119h-123l-26 -317l262 182l-8 -137l-265 -181l-34 -411h356l33 170h123l-43 -289h-758z" />
    <glyph glyph-name="M.sc" unicode="&#xe01e;" horiz-adv-x="1593" 
d="M68 0l10 119h123l71 864h-139l10 119h344l283 -924l410 924h325l-10 -119h-111l-71 -864h151l-10 -119h-414l11 119h123l65 780l-4 4l-406 -903h-155l-262 893h-6l-66 -774h139l-10 -119h-401z" />
    <glyph glyph-name="N.sc" unicode="&#xe01f;" horiz-adv-x="1327" 
d="M57 0l11 119h122l72 864h-151l10 119h307l506 -850h4l59 731h-151l10 119h414l-10 -119h-123l-82 -983h-148l-514 868h-4l-59 -749h151l-10 -119h-414z" />
    <glyph glyph-name="Ntilde.sc" unicode="&#xe020;" horiz-adv-x="1327" 
d="M566 1503q64 0 156 -57t121 -57q29 1 61 27t48 63l103 -70q-53 -86 -101 -118q-110 -74 -262 26q-86 57 -119 57q-65 0 -104 -104l-115 51q27 78 87 130q61 52 125 52zM57 0l11 119h122l72 864h-151l10 119h307l506 -850h4l59 731h-151l10 119h414l-10 -119h-123
l-82 -983h-148l-514 868h-4l-59 -749h151l-10 -119h-414z" />
    <glyph glyph-name="O.sc" unicode="&#xe021;" horiz-adv-x="1175" 
d="M252 508q0 -197 79 -299t226 -103q98 0 172 44t115 118q78 140 79 333q1 192 -78 293t-227 101q-98 0 -172 -44q-127 -76 -175 -271q-19 -82 -19 -172zM618 1124q230 0 350 -144t119 -368q0 -181 -68 -333q-38 -86 -95 -152q-58 -66 -152 -108t-213 -42q-231 1 -351 145
t-120 346q0 319 165 507q59 65 153 107t212 42z" />
    <glyph glyph-name="OE.sc" unicode="&#xe022;" horiz-adv-x="1593" 
d="M252 504q0 -211 97 -302t292 -91l133 8l72 864l-191 8q-175 0 -289 -138t-114 -349zM88 498q0 242 154 428q154 184 415 184l207 -8h609l-7 -279h-123l-6 160h-336l-30 -356h332l-11 -119h-331l-31 -389h360l33 170h119l-43 -289h-629l-254 -8q-186 0 -307 132t-121 374z
" />
    <glyph glyph-name="Oacute.sc" unicode="&#xe023;" horiz-adv-x="1175" 
d="M492 1298l344 277l104 -80l-358 -278zM252 508q0 -197 79 -299t226 -103q98 0 172 44t115 118q78 140 79 333q1 192 -78 293t-227 101q-98 0 -172 -44q-127 -76 -175 -271q-19 -82 -19 -172zM618 1124q230 0 350 -144t119 -368q0 -181 -68 -333q-38 -86 -95 -152
q-58 -66 -152 -108t-213 -42q-231 1 -351 145t-120 346q0 319 165 507q59 65 153 107t212 42z" />
    <glyph glyph-name="Ocircumflex.sc" unicode="&#xe024;" horiz-adv-x="1175" 
d="M334 1346l284 229h140l248 -229l-105 -82l-221 196l-256 -196zM252 508q0 -197 79 -299t226 -103q98 0 172 44t115 118q78 140 79 333q1 192 -78 293t-227 101q-98 0 -172 -44q-127 -76 -175 -271q-19 -82 -19 -172zM618 1124q230 0 350 -144t119 -368q0 -181 -68 -333
q-38 -86 -95 -152q-58 -66 -152 -108t-213 -42q-231 1 -351 145t-120 346q0 319 165 507q59 65 153 107t212 42z" />
    <glyph glyph-name="Odieresis.sc" unicode="&#xe025;" horiz-adv-x="1175" 
d="M352 1397q0 45 33 78t78 33t78 -34q33 -32 33 -77t-34 -78q-32 -33 -77 -33t-78 33t-33 78zM772 1397q0 45 32 78t79 33t79 -34q32 -32 32 -77t-32 -78t-79 -33t-79 33t-32 78zM252 508q0 -197 79 -299t226 -103q98 0 172 44t115 118q78 140 79 333q1 192 -78 293
t-227 101q-98 0 -172 -44q-127 -76 -175 -271q-19 -82 -19 -172zM618 1124q230 0 350 -144t119 -368q0 -181 -68 -333q-38 -86 -95 -152q-58 -66 -152 -108t-213 -42q-231 1 -351 145t-120 346q0 319 165 507q59 65 153 107t212 42z" />
    <glyph glyph-name="Ograve.sc" unicode="&#xe026;" horiz-adv-x="1175" 
d="M700 1217l-305 278l113 80l297 -277zM252 508q0 -197 79 -299t226 -103q98 0 172 44t115 118q78 140 79 333q1 192 -78 293t-227 101q-98 0 -172 -44q-127 -76 -175 -271q-19 -82 -19 -172zM618 1124q230 0 350 -144t119 -368q0 -181 -68 -333q-38 -86 -95 -152
q-58 -66 -152 -108t-213 -42q-231 1 -351 145t-120 346q0 319 165 507q59 65 153 107t212 42z" />
    <glyph glyph-name="Oslash.sc" unicode="&#xe027;" horiz-adv-x="1175" 
d="M88 489q0 182 69 334q38 86 96 152q59 65 153 107t236 42t253 -77l143 192l80 -59l-149 -201q119 -139 118 -367q0 -181 -68 -333q-38 -86 -95 -152q-58 -66 -152 -108t-234 -42t-255 80l-146 -194l-80 59l152 203q-121 129 -121 364zM547 106q206 0 297 162
q78 141 78 313q1 173 -50 269l-505 -678q72 -66 180 -66zM252 521q0 -171 53 -267l504 676q-73 66 -181 66q-208 -1 -296 -161q-80 -143 -80 -314z" />
    <glyph glyph-name="Otilde.sc" unicode="&#xe028;" horiz-adv-x="1175" 
d="M532 1503q64 0 155 -57t121 -57q30 1 62 27t48 63l102 -70q-53 -86 -100 -118q-110 -75 -263 26q-86 57 -118 57q-66 0 -105 -104l-115 51q27 78 87 130q62 52 126 52zM252 508q0 -197 79 -299t226 -103q98 0 172 44t115 118q78 140 79 333q1 192 -78 293t-227 101
q-98 0 -172 -44q-127 -76 -175 -271q-19 -82 -19 -172zM618 1124q230 0 350 -144t119 -368q0 -181 -68 -333q-38 -86 -95 -152q-58 -66 -152 -108t-213 -42q-231 1 -351 145t-120 346q0 319 165 507q59 65 153 107t212 42z" />
    <glyph glyph-name="P.sc" unicode="&#xe029;" horiz-adv-x="948" 
d="M553 1102q168 0 251 -76t83 -211t-94 -244t-285 -108h-129l-29 -344h152l-10 -119h-431l11 119h123l71 864h-151l10 119h428zM479 582q119 0 186 60t66 169q0 74 -43 123t-125 49h-141l-35 -401h92z" />
    <glyph glyph-name="Q.sc" unicode="&#xe02a;" horiz-adv-x="1214" 
d="M1044 -297q-104 0 -184 51l-352 223q-182 13 -301 147t-119 365q0 182 69 334q38 86 96 152q59 65 153 107t212 42q230 0 350 -144t120 -368t-97 -390q-96 -167 -268 -222l201 -115q92 -53 170 -53q34 0 77 14l-10 -129q-61 -14 -117 -14zM252 508q0 -197 79 -299
t226 -103q98 0 172 44t115 118q78 140 79 333q1 192 -78 293t-227 101q-98 0 -172 -44q-127 -76 -175 -271q-19 -82 -19 -172z" />
    <glyph glyph-name="R.sc" unicode="&#xe02b;" horiz-adv-x="1062" 
d="M502 602q106 0 168 67q61 67 61 149t-47 124q-47 41 -127 41h-135l-31 -381h111zM588 1102q299 0 299 -268q0 -132 -86 -216t-238 -98v-4q49 -4 79 -21t60 -67l172 -268q27 -41 89 -41h47l-9 -119h-151q-68 0 -113 78l-182 317q-51 88 -127 88h-47l-31 -364h139l-10 -119
h-418l11 119h123l71 864h-151l10 119h463z" />
    <glyph glyph-name="S.sc" unicode="&#xe02c;" horiz-adv-x="985" 
d="M324 809q0 -88 127 -137l227 -86q102 -38 146 -100t44 -169q0 -141 -110 -240t-326 -100q-147 0 -315 52l4 266h123l8 -162q96 -27 182 -27q139 0 209 58t70 146q0 87 -103 128l-245 99q-197 78 -197 264q0 151 114 237t276 86t304 -53l-4 -246h-123l-8 140
q-51 31 -166 31t-176 -50q-61 -49 -61 -137z" />
    <glyph glyph-name="Scaron.sc" unicode="&#xe02d;" horiz-adv-x="985" 
d="M508 1253l-248 230l105 82l221 -197l256 197l90 -82l-285 -230h-139zM324 809q0 -88 127 -137l227 -86q102 -38 146 -100t44 -169q0 -141 -110 -240t-326 -100q-147 0 -315 52l4 266h123l8 -162q96 -27 182 -27q139 0 209 58t70 146q0 87 -103 128l-245 99
q-197 78 -197 264q0 151 114 237t276 86t304 -53l-4 -246h-123l-8 140q-51 31 -166 31t-176 -50q-61 -49 -61 -137z" />
    <glyph glyph-name="T.sc" unicode="&#xe02e;" horiz-adv-x="985" 
d="M236 0l10 119h123l71 864h-256l-39 -164h-118l43 283h911l-6 -283h-113l-6 164h-260l-72 -864h152l-10 -119h-430z" />
    <glyph glyph-name="Thorn.sc" unicode="&#xe02f;" horiz-adv-x="948" 
d="M535 905q169 0 251 -76q82 -77 82 -211t-94 -243t-285 -109h-129l-10 -147h152l-10 -119h-431l11 119h123l71 864h-151l10 119h430l-10 -119h-123l-6 -78h119zM461 385q119 0 185 60q66 59 67 151q0 92 -43 141t-125 49h-142l-32 -401h90z" />
    <glyph glyph-name="U.sc" unicode="&#xe030;" horiz-adv-x="1251" 
d="M313 303q0 -197 254 -197q125 0 198 58t81 153l57 666h-151l10 119h414l-11 -119h-123l-57 -653q-31 -352 -440 -353q-199 0 -293 80t-94 201q0 35 8 150l47 575h-152l11 119h430l-10 -119h-123l-50 -586q-6 -86 -6 -94z" />
    <glyph glyph-name="Uacute.sc" unicode="&#xe031;" horiz-adv-x="1251" 
d="M530 1298l344 277l105 -80l-358 -278zM313 303q0 -197 254 -197q125 0 198 58t81 153l57 666h-151l10 119h414l-11 -119h-123l-57 -653q-31 -352 -440 -353q-199 0 -293 80t-94 201q0 35 8 150l47 575h-152l11 119h430l-10 -119h-123l-50 -586q-6 -86 -6 -94z" />
    <glyph glyph-name="Ucircumflex.sc" unicode="&#xe032;" horiz-adv-x="1251" 
d="M348 1346l285 229h139l248 -229l-105 -82l-221 196l-256 -196zM313 303q0 -197 254 -197q125 0 198 58t81 153l57 666h-151l10 119h414l-11 -119h-123l-57 -653q-31 -352 -440 -353q-199 0 -293 80t-94 201q0 35 8 150l47 575h-152l11 119h430l-10 -119h-123l-50 -586
q-6 -86 -6 -94z" />
    <glyph glyph-name="Udieresis.sc" unicode="&#xe033;" horiz-adv-x="1251" 
d="M367 1397q0 45 31 78q32 33 79 33t79 -34q32 -32 32 -77t-32 -78t-79 -33t-79 33q-31 33 -31 78zM786 1397q0 45 33 78t78 33t78 -34q33 -32 33 -77t-33 -78t-78 -33t-78 33t-33 78zM313 303q0 -197 254 -197q125 0 198 58t81 153l57 666h-151l10 119h414l-11 -119h-123
l-57 -653q-31 -352 -440 -353q-199 0 -293 80t-94 201q0 35 8 150l47 575h-152l11 119h430l-10 -119h-123l-50 -586q-6 -86 -6 -94z" />
    <glyph glyph-name="Ugrave.sc" unicode="&#xe034;" horiz-adv-x="1251" 
d="M739 1217l-305 278l113 80l297 -277zM313 303q0 -197 254 -197q125 0 198 58t81 153l57 666h-151l10 119h414l-11 -119h-123l-57 -653q-31 -352 -440 -353q-199 0 -293 80t-94 201q0 35 8 150l47 575h-152l11 119h430l-10 -119h-123l-50 -586q-6 -86 -6 -94z" />
    <glyph glyph-name="V.sc" unicode="&#xe035;" horiz-adv-x="1062" 
d="M106 983h-118l10 119h424l-10 -119h-129l227 -831h4l344 831h-147l10 119h407l-10 -119h-104l-441 -983h-163z" />
    <glyph glyph-name="W.sc" unicode="&#xe036;" horiz-adv-x="1669" 
d="M117 983h-119l10 119h422l-10 -119h-127l207 -844h4l291 664l-54 180h-114l10 119h422l-10 -119h-144l211 -844h4l326 844h-148l11 119h413l-10 -119h-110l-424 -983h-156l-176 635h-4l-281 -635h-155z" />
    <glyph glyph-name="X.sc" unicode="&#xe037;" horiz-adv-x="1099" 
d="M-14 0l10 119h94l371 446l-273 418h-122l10 119h434l-10 -119h-135l204 -309l250 309h-155l10 119h405l-10 -119h-94l-344 -405l293 -459h123l-11 -119h-444l10 119h135l-215 346l-268 -346h147l-10 -119h-405z" />
    <glyph glyph-name="Y.sc" unicode="&#xe038;" horiz-adv-x="1024" 
d="M260 0l10 119h123l29 342l-322 522h-112l10 119h434l-10 -119h-137l231 -405l281 405h-148l10 119h414l-10 -119h-102l-383 -512l-29 -352h151l-10 -119h-430z" />
    <glyph glyph-name="Yacute.sc" unicode="&#xe039;" horiz-adv-x="1024" 
d="M416 1298l344 277l104 -80l-358 -278zM260 0l10 119h123l29 342l-322 522h-112l10 119h434l-10 -119h-137l231 -405l281 405h-148l10 119h414l-10 -119h-102l-383 -512l-29 -352h151l-10 -119h-430z" />
    <glyph glyph-name="Ydieresis.sc" unicode="&#xe03a;" horiz-adv-x="1024" 
d="M236 1397q0 45 31 78q32 33 79 33t79 -34q32 -32 32 -77t-32 -78t-79 -33t-79 33q-31 33 -31 78zM655 1397q0 45 33 78t78 33t78 -34q33 -32 33 -77t-33 -78t-78 -33t-78 33t-33 78zM260 0l10 119h123l29 342l-322 522h-112l10 119h434l-10 -119h-137l231 -405l281 405
h-148l10 119h414l-10 -119h-102l-383 -512l-29 -352h151l-10 -119h-430z" />
    <glyph glyph-name="Z.sc" unicode="&#xe03b;" horiz-adv-x="985" 
d="M227 825h-123l33 277h799l-6 -109l-721 -874h516l33 176h125l-39 -295h-826l7 123l712 860h-485z" />
    <glyph glyph-name="Zcaron.sc" unicode="&#xe03c;" horiz-adv-x="985" 
d="M467 1253l-248 230l105 82l221 -197l256 197l90 -82l-285 -230h-139zM227 825h-123l33 277h799l-6 -109l-721 -874h516l33 176h125l-39 -295h-826l7 123l712 860h-485z" />
    <glyph glyph-name="f_i.sc" unicode="&#xe03d;" horiz-adv-x="1554" 
d="M61 0l11 119h123l71 864h-151l10 119h768l-6 -279h-123l-6 160h-336l-31 -371h354l-10 -118h-354l-31 -375h152l-10 -119h-431zM985 0l10 119h123l72 864h-152l11 119h430l-11 -119h-122l-72 -864h151l-10 -119h-430z" />
    <glyph glyph-name="f_l.sc" unicode="&#xe03e;" horiz-adv-x="1818" 
d="M61 0l11 119h123l71 864h-151l10 119h768l-6 -279h-123l-6 160h-336l-31 -371h354l-10 -118h-354l-31 -375h152l-10 -119h-431zM985 0l10 119h123l72 864h-152l11 119h430l-11 -119h-122l-72 -864h356l33 170h123l-43 -289h-758z" />
    <glyph glyph-name="germandbls.sc" unicode="&#xe03f;" horiz-adv-x="1970" 
d="M324 809q0 -88 127 -137l227 -86q102 -38 146 -100t44 -169q0 -141 -110 -240t-326 -100q-147 0 -315 52l4 266h123l8 -162q96 -27 182 -27q139 0 209 58t70 146q0 87 -103 128l-245 99q-197 78 -197 264q0 151 114 237t276 86t304 -53l-4 -246h-123l-8 140
q-51 31 -166 31t-176 -50q-61 -49 -61 -137zM1309 809q0 -88 127 -137l227 -86q102 -38 146 -100t44 -169q-1 -141 -111 -240t-325 -100q-147 0 -315 52l4 266h123l8 -162q96 -27 182 -27q139 0 209 58t70 146q0 87 -103 128l-245 99q-197 78 -197 264q0 151 114 237
q115 86 277 86t303 -53l-4 -246h-123l-8 140q-51 31 -166 31t-176 -50q-61 -49 -61 -137z" />
    <glyph glyph-name="zero.taboldstyle" unicode="&#xf643;" 
d="M576 946q-150 0 -246 -129t-97 -319q0 -190 78 -288q78 -99 217 -99q354 0 355 469q0 170 -78 268q-79 98 -229 98zM78 482q0 242 137 423q137 180 379 180q205 0 325 -135q119 -136 119 -378t-137 -421t-379 -180q-204 1 -324 135t-120 376z" />
    <glyph glyph-name="one.taboldstyle" unicode="&#xf644;" 
d="M504 928h-209l10 129h563l-10 -129h-199l-65 -799h209l-10 -129h-564l11 129h198z" />
    <glyph glyph-name="two.taboldstyle" unicode="&#xf645;" 
d="M784 762q0 86 -54 135t-160 49t-170 -61q-62 -61 -76 -154h-156q20 150 131 252t287 102t269 -89q93 -90 93 -230t-146 -290t-458 -333v-4h606l-12 -139h-823l8 129q377 238 519 380t142 253z" />
    <glyph glyph-name="three.taboldstyle" unicode="&#xf646;" 
d="M583 1085q177 0 272 -87t95 -228q0 -142 -92 -246t-274 -143v-4q162 -4 264 -92t102 -260q0 -171 -142 -303t-392 -132q-197 0 -387 80l12 146q55 -35 161 -61t191 -25q190 0 292 87q101 87 101 218t-114 197t-301 65h-60l11 129q188 0 326 86t138 240q0 86 -59 140
t-168 54t-177 -59t-79 -137h-156q19 154 139 244t297 91z" />
    <glyph glyph-name="four.taboldstyle" unicode="&#xf647;" 
d="M713 901l-545 -690h479l70 686zM4 82l12 133l682 842h176l-71 -846h305l-10 -129h-307l-39 -459h-156l39 459h-631z" />
    <glyph glyph-name="five.taboldstyle" unicode="&#xf648;" 
d="M958 90q0 -200 -154 -350t-405 -150q-176 0 -315 41l10 144q150 -45 273 -45q205 0 317 102t111 244q0 186 -157 248q-157 61 -468 65l57 668h731l-12 -139h-577l-35 -390q348 -8 486 -122q138 -116 138 -316z" />
    <glyph glyph-name="six.taboldstyle" unicode="&#xf649;" 
d="M254 516q0 -176 85 -291t225 -115t219 102t79 240t-78 217t-209 79q-169 -1 -321 -148v-84zM887 1323q-508 0 -633 -608l4 -4q133 176 365 176q171 0 287 -108q116 -109 116 -319t-124 -349t-340 -139t-344 154q-128 155 -128 417q0 419 219 669t547 250q152 1 238 -22
l-21 -133q-86 16 -186 16z" />
    <glyph glyph-name="seven.taboldstyle" unicode="&#xf64a;" 
d="M848 918h-694l12 139h862l-10 -113l-295 -528q-186 -332 -317 -508t-322 -330l-90 100q137 98 262 272q124 174 308 494t284 474z" />
    <glyph glyph-name="eight.taboldstyle" unicode="&#xf64b;" 
d="M545 -29q-235 0 -359 96t-123 249q-1 153 97 252t289 180q-276 125 -277 354q0 158 125 259t315 101t295 -87q104 -87 105 -226q0 -240 -322 -397q182 -86 260 -170t78 -215q0 -166 -124 -281t-359 -115zM227 334q0 -104 86 -163q86 -60 238 -60q153 1 233 71t80 170
t-54 160t-259 168q-186 -96 -255 -169t-69 -177zM328 1111q0 -87 52 -150t195 -138q152 76 217 151q64 75 64 166t-69 142t-187 51t-196 -67q-76 -68 -76 -155z" />
    <glyph glyph-name="nine.taboldstyle" unicode="&#xf64c;" 
d="M98 622q0 204 131 333q131 130 337 130q206 1 329 -157t123 -422q0 -540 -350 -777q-178 -122 -422 -122q-92 -1 -219 24l16 136q55 -20 184 -21q281 0 433 163t194 449l-4 4q-88 -96 -161 -132t-177 -35q-178 -1 -296 111t-118 316zM854 537q0 173 -78 291t-217 118
t-218 -86t-79 -227t83 -220t208 -79q184 -1 301 149v54z" />
    <glyph glyph-name="dollar.taboldstyle" unicode="&#xf653;" 
d="M901 391q0 201 -262 254l-45 -530q111 1 209 75t98 201zM291 1092q0 -187 250 -242l41 469q-131 0 -211 -68t-80 -159zM207 358v-200q137 -43 270 -43l49 559q-225 57 -318 153t-93 230q0 187 141 293t338 108l20 248h115l-20 -248q213 -16 338 -61l-13 -293h-133v184
q-88 31 -205 31l-43 -498q424 -98 424 -395q0 -197 -137 -322t-358 -129l-25 -266h-115l25 266q-228 7 -406 68l13 315h133z" />
    <glyph glyph-name="cent.taboldstyle" unicode="&#xf654;" 
d="M311 486q-1 -163 53 -254t146 -107l74 819q-125 -18 -199 -156t-74 -302zM147 457q0 428 293 568q74 36 156 48l20 217h115l-20 -213q186 -4 280 -43l-20 -260h-133l8 158q-68 16 -148 16l-73 -833q170 2 301 80l-15 -150q-111 -59 -299 -70l-20 -245h-115l21 245
q-180 27 -266 144q-85 117 -85 338z" />
    <glyph glyph-name="breve.sc" unicode="&#xf6f4;" horiz-adv-x="569" 
d="M380 1374q142 0 204 166l121 -55q-104 -240 -333 -240t-323 246l127 55q62 -172 204 -172z" />
    <glyph glyph-name="caron.sc" unicode="&#xf6f5;" horiz-adv-x="569" 
d="M299 1253l-248 230l105 82l221 -197l256 197l90 -82l-285 -230h-139z" />
    <glyph glyph-name="circumflex.sc" unicode="&#xf6f6;" horiz-adv-x="569" 
d="M31 1346l284 229h140l247 -229l-104 -82l-221 196l-256 -196z" />
    <glyph glyph-name="dotaccent.sc" unicode="&#xf6f7;" horiz-adv-x="569" 
d="M352 1507q45 -1 78 -33t33 -77t-33 -78t-78 -33t-78 33t-32 78q0 45 32 78q33 32 78 32z" />
    <glyph glyph-name="hungarumlaut.sc" unicode="&#xf6f8;" horiz-adv-x="569" 
d="M399 1298l344 277l105 -82l-359 -276zM-18 1298l344 277l104 -82l-358 -276z" />
    <glyph glyph-name="lslash.sc" unicode="&#xf6f9;" horiz-adv-x="909" 
d="M76 0l10 119h123l24 299l-139 -96l8 131l142 98l37 432h-152l10 119h430l-10 -119h-123l-26 -317l262 182l-8 -137l-265 -181l-34 -411h356l33 170h123l-43 -289h-758z" />
    <glyph glyph-name="oe.sc" unicode="&#xf6fa;" horiz-adv-x="1593" 
d="M252 504q0 -211 97 -302t292 -91l133 8l72 864l-191 8q-175 0 -289 -138t-114 -349zM88 498q0 242 154 428q154 184 415 184l207 -8h609l-7 -279h-123l-6 160h-336l-30 -356h332l-11 -119h-331l-31 -389h360l33 170h119l-43 -289h-629l-254 -8q-186 0 -307 132t-121 374z
" />
    <glyph glyph-name="ogonek.sc" unicode="&#xf6fb;" horiz-adv-x="569" 
d="M360 -254q0 -119 88 -119t154 72l-8 -96q-90 -90 -209 -90q-68 -1 -116 37t-48 122q0 158 164 328h96q-121 -135 -121 -254z" />
    <glyph glyph-name="ring.sc" unicode="&#xf6fc;" horiz-adv-x="569" 
d="M382 1599q95 0 138 -55t43 -129q0 -75 -48 -145q-49 -70 -145 -70t-146 47t-50 137t56 153q57 62 152 62zM461 1403q0 104 -80 104q-49 -1 -77 -35t-28 -80q0 -100 84 -100q47 0 74 34t27 77z" />
    <glyph glyph-name="scaron.sc" unicode="&#xf6fd;" horiz-adv-x="985" 
d="M508 1253l-248 230l105 82l221 -197l256 197l90 -82l-285 -230h-139zM324 809q0 -88 127 -137l227 -86q102 -38 146 -100t44 -169q0 -141 -110 -240t-326 -100q-147 0 -315 52l4 266h123l8 -162q96 -27 182 -27q139 0 209 58t70 146q0 87 -103 128l-245 99
q-197 78 -197 264q0 151 114 237t276 86t304 -53l-4 -246h-123l-8 140q-51 31 -166 31t-176 -50q-61 -49 -61 -137z" />
    <glyph glyph-name="tilde.sc" unicode="&#xf6fe;" horiz-adv-x="569" 
d="M228 1503q65 0 156 -57t121 -57q29 1 61 27t48 63l103 -70q-53 -86 -101 -118q-110 -74 -262 26q-86 57 -118 57q-66 0 -105 -104l-115 51q27 78 87 130t125 52z" />
    <glyph glyph-name="zcaron.sc" unicode="&#xf6ff;" horiz-adv-x="985" 
d="M467 1253l-248 230l105 82l221 -197l256 197l90 -82l-285 -230h-139zM227 825h-123l33 277h799l-6 -109l-721 -874h516l33 176h125l-39 -295h-826l7 123l712 860h-485z" />
    <glyph glyph-name="exclam.sc" unicode="&#xf721;" horiz-adv-x="606" 
d="M135 96q0 47 35 82t82 35t82 -35t35 -82t-35 -82q-35 -34 -82 -34t-82 34t-35 82zM217 471l78 1104h176l-109 -1104h-145z" />
    <glyph glyph-name="ampersand.sc" unicode="&#xf726;" horiz-adv-x="1517" 
d="M637 815q0 131 -127 131q-104 0 -173 -105t-69 -247t39 -223l146 131q104 96 144 165t40 148zM739 893q0 -88 -67 -191l4 -4l553 531l82 -90l-932 -869q84 -88 159 -120t181 -33q201 0 325 120t152 281h-172l10 119h447l-11 -119h-127q-49 -256 -219 -398t-409 -143
q-281 0 -442 168q-161 167 -161 403t120 387t296 150q96 0 154 -52t57 -140z" />
    <glyph glyph-name="question.sc" unicode="&#xf73f;" horiz-adv-x="985" 
d="M164 96q0 47 35 82t82 35t81 -35t35 -82q0 -47 -35 -82q-36 -34 -82 -34t-81 34t-35 82zM188 608q0 123 123 205l246 168q102 70 137 122t35 138q0 87 -61 149q-62 62 -194 62t-263 -45l-6 139q133 45 276 45q193 0 303 -99t109 -251q0 -217 -234 -364l-153 -99
q-92 -59 -123 -96q-76 -90 27 -186l-140 -66q-82 86 -82 178z" />
    <glyph glyph-name="grave.sc" unicode="&#xf760;" horiz-adv-x="569" 
d="M397 1217l-305 278l113 80l297 -277z" />
    <glyph glyph-name="a.sc" unicode="&#xf761;" horiz-adv-x="1099" 
d="M582 981l-187 -438h299l-108 438h-4zM-49 0l10 119h102l451 991h176l285 -991h121l-11 -119h-426l11 119h129l-78 305h-373l-129 -305h152l-11 -119h-409z" />
    <glyph glyph-name="b.sc" unicode="&#xf762;" horiz-adv-x="1024" 
d="M479 637q123 0 183 64q59 65 59 138q0 144 -162 144h-137l-31 -346h88zM510 119q111 0 170 62t59 159q0 178 -219 178h-135l-35 -399h160zM877 860q0 -112 -78 -180q-78 -70 -205 -88v-4q301 0 301 -254q0 -134 -99 -234t-298 -100h-437l11 119h123l71 864h-151l10 119
h438q156 2 235 -64t79 -178z" />
    <glyph glyph-name="c.sc" unicode="&#xf763;" horiz-adv-x="1062" 
d="M252 510q0 -403 375 -404q66 0 153 25l29 158h119l-25 -256q-105 -55 -333 -55t-355 140q-127 142 -127 374q0 276 158 454t422 178q139 0 307 -39l-6 -270h-123l-6 158q-70 23 -183 22q-181 0 -293 -130t-112 -355z" />
    <glyph glyph-name="d.sc" unicode="&#xf764;" horiz-adv-x="1214" 
d="M682 1102q205 0 331 -119t126 -371t-153 -432t-406 -180h-519l11 119h123l71 864h-151l10 119h557zM573 119q178 0 290 139t112 345t-92 293t-226 87h-235l-72 -864h223z" />
    <glyph glyph-name="e.sc" unicode="&#xf765;" horiz-adv-x="985" 
d="M61 0l11 119h123l71 864h-151l10 119h768l-6 -279h-123l-6 160h-336l-31 -356h357l-11 -119h-356l-31 -389h361l32 170h119l-43 -289h-758z" />
    <glyph glyph-name="f.sc" unicode="&#xf766;" horiz-adv-x="909" 
d="M61 0l11 119h123l71 864h-151l10 119h768l-6 -279h-123l-6 160h-336l-31 -371h354l-10 -118h-354l-31 -375h152l-10 -119h-431z" />
    <glyph glyph-name="g.sc" unicode="&#xf767;" 
d="M989 815h-127l-4 162q-74 18 -201 18q-181 0 -293 -130t-112 -355q0 -403 375 -404q90 0 170 27l22 232h-155l10 118h411l-10 -118h-117l-34 -334q-156 -53 -342 -54q-240 -1 -367 141t-127 374q0 276 158 454t422 178q159 0 321 -43v-266z" />
    <glyph glyph-name="h.sc" unicode="&#xf768;" horiz-adv-x="1290" 
d="M61 0l11 119h123l71 864h-151l10 119h430l-10 -119h-123l-31 -371h518l31 371h-152l11 119h430l-10 -119h-123l-72 -864h152l-11 -119h-430l10 119h123l31 375h-518l-31 -375h152l-10 -119h-431z" />
    <glyph glyph-name="i.sc" unicode="&#xf769;" horiz-adv-x="645" 
d="M76 0l10 119h123l72 864h-152l10 119h430l-10 -119h-123l-71 -864h151l-10 -119h-430z" />
    <glyph glyph-name="j.sc" unicode="&#xf76a;" horiz-adv-x="569" 
d="M252 983h-152l11 119h430l-11 -119h-122l-62 -747q-16 -209 -116 -334t-281 -211l-51 112q162 87 220 183t75 280z" />
    <glyph glyph-name="k.sc" unicode="&#xf76b;" 
d="M61 0l11 119h123l71 864h-151l10 119h430l-10 -119h-123l-33 -395l453 395h-137l10 119h407l-10 -119h-90l-469 -418l403 -446h115l-10 -119h-432l10 119h133l-387 422l-35 -422h152l-10 -119h-431z" />
    <glyph glyph-name="l.sc" unicode="&#xf76c;" horiz-adv-x="909" 
d="M76 0l10 119h123l72 864h-152l10 119h430l-10 -119h-123l-71 -864h356l33 170h123l-43 -289h-758z" />
    <glyph glyph-name="m.sc" unicode="&#xf76d;" horiz-adv-x="1593" 
d="M68 0l10 119h123l71 864h-139l10 119h344l283 -924l410 924h325l-10 -119h-111l-71 -864h151l-10 -119h-414l11 119h123l65 780l-4 4l-406 -903h-155l-262 893h-6l-66 -774h139l-10 -119h-401z" />
    <glyph glyph-name="n.sc" unicode="&#xf76e;" horiz-adv-x="1327" 
d="M57 0l11 119h122l72 864h-151l10 119h307l506 -850h4l59 731h-151l10 119h414l-10 -119h-123l-82 -983h-148l-514 868h-4l-59 -749h151l-10 -119h-414z" />
    <glyph glyph-name="o.sc" unicode="&#xf76f;" horiz-adv-x="1175" 
d="M252 508q0 -197 79 -299t226 -103q98 0 172 44t115 118q78 140 79 333q1 192 -78 293t-227 101q-98 0 -172 -44q-127 -76 -175 -271q-19 -82 -19 -172zM618 1124q230 0 350 -144t119 -368q0 -181 -68 -333q-38 -86 -95 -152q-58 -66 -152 -108t-213 -42q-231 1 -351 145
t-120 346q0 319 165 507q59 65 153 107t212 42z" />
    <glyph glyph-name="p.sc" unicode="&#xf770;" horiz-adv-x="948" 
d="M553 1102q168 0 251 -76t83 -211t-94 -244t-285 -108h-129l-29 -344h152l-10 -119h-431l11 119h123l71 864h-151l10 119h428zM479 582q119 0 186 60t66 169q0 74 -43 123t-125 49h-141l-35 -401h92z" />
    <glyph glyph-name="q.sc" unicode="&#xf771;" horiz-adv-x="1214" 
d="M1044 -297q-104 0 -184 51l-352 223q-182 13 -301 147t-119 365q0 182 69 334q38 86 96 152q59 65 153 107t212 42q230 0 350 -144t120 -368t-97 -390q-96 -167 -268 -222l201 -115q92 -53 170 -53q34 0 77 14l-10 -129q-61 -14 -117 -14zM252 508q0 -197 79 -299
t226 -103q98 0 172 44t115 118q78 140 79 333q1 192 -78 293t-227 101q-98 0 -172 -44q-127 -76 -175 -271q-19 -82 -19 -172z" />
    <glyph glyph-name="r.sc" unicode="&#xf772;" horiz-adv-x="1062" 
d="M502 602q106 0 168 67q61 67 61 149t-47 124q-47 41 -127 41h-135l-31 -381h111zM588 1102q299 0 299 -268q0 -132 -86 -216t-238 -98v-4q49 -4 79 -21t60 -67l172 -268q27 -41 89 -41h47l-9 -119h-151q-68 0 -113 78l-182 317q-51 88 -127 88h-47l-31 -364h139l-10 -119
h-418l11 119h123l71 864h-151l10 119h463z" />
    <glyph glyph-name="s.sc" unicode="&#xf773;" horiz-adv-x="985" 
d="M324 809q0 -88 127 -137l227 -86q102 -38 146 -100t44 -169q0 -141 -110 -240t-326 -100q-147 0 -315 52l4 266h123l8 -162q96 -27 182 -27q139 0 209 58t70 146q0 87 -103 128l-245 99q-197 78 -197 264q0 151 114 237t276 86t304 -53l-4 -246h-123l-8 140
q-51 31 -166 31t-176 -50q-61 -49 -61 -137z" />
    <glyph glyph-name="t.sc" unicode="&#xf774;" horiz-adv-x="985" 
d="M236 0l10 119h123l71 864h-256l-39 -164h-118l43 283h911l-6 -283h-113l-6 164h-260l-72 -864h152l-10 -119h-430z" />
    <glyph glyph-name="u.sc" unicode="&#xf775;" horiz-adv-x="1251" 
d="M313 303q0 -197 254 -197q125 0 198 58t81 153l57 666h-151l10 119h414l-11 -119h-123l-57 -653q-31 -352 -440 -353q-199 0 -293 80t-94 201q0 35 8 150l47 575h-152l11 119h430l-10 -119h-123l-50 -586q-6 -86 -6 -94z" />
    <glyph glyph-name="v.sc" unicode="&#xf776;" horiz-adv-x="1062" 
d="M106 983h-118l10 119h424l-10 -119h-129l227 -831h4l344 831h-147l10 119h407l-10 -119h-104l-441 -983h-163z" />
    <glyph glyph-name="w.sc" unicode="&#xf777;" horiz-adv-x="1669" 
d="M117 983h-119l10 119h422l-10 -119h-127l207 -844h4l291 664l-54 180h-114l10 119h422l-10 -119h-144l211 -844h4l326 844h-148l11 119h413l-10 -119h-110l-424 -983h-156l-176 635h-4l-281 -635h-155z" />
    <glyph glyph-name="x.sc" unicode="&#xf778;" horiz-adv-x="1099" 
d="M-14 0l10 119h94l371 446l-273 418h-122l10 119h434l-10 -119h-135l204 -309l250 309h-155l10 119h405l-10 -119h-94l-344 -405l293 -459h123l-11 -119h-444l10 119h135l-215 346l-268 -346h147l-10 -119h-405z" />
    <glyph glyph-name="y.sc" unicode="&#xf779;" horiz-adv-x="1024" 
d="M260 0l10 119h123l29 342l-322 522h-112l10 119h434l-10 -119h-137l231 -405l281 405h-148l10 119h414l-10 -119h-102l-383 -512l-29 -352h151l-10 -119h-430z" />
    <glyph glyph-name="z.sc" unicode="&#xf77a;" horiz-adv-x="985" 
d="M227 825h-123l33 277h799l-6 -109l-721 -874h516l33 176h125l-39 -295h-826l7 123l712 860h-485z" />
    <glyph glyph-name="exclamdown.sc" unicode="&#xf7a1;" horiz-adv-x="606" 
d="M471 981q0 -47 -35 -82t-82 -35t-82 35t-34 82q0 47 34 82q35 35 82 35t82 -35t35 -82zM135 -498l109 1104h145l-78 -1104h-176z" />
    <glyph glyph-name="dieresis.sc" unicode="&#xf7a8;" horiz-adv-x="569" 
d="M49 1397q0 45 33 78t78 33t78 -34q32 -32 32 -77t-32 -78t-78 -33q-45 0 -78 33t-33 78zM469 1397q0 45 32 78t79 33q46 0 78 -34q32 -32 32 -77t-32 -78t-78 -33t-79 33q-32 33 -32 78z" />
    <glyph glyph-name="macron.sc" unicode="&#xf7af;" horiz-adv-x="569" 
d="M100 1329l11 129h512l-11 -129h-512z" />
    <glyph glyph-name="acute.sc" unicode="&#xf7b4;" horiz-adv-x="569" 
d="M188 1298l344 277l105 -80l-358 -278z" />
    <glyph glyph-name="cedilla.sc" unicode="&#xf7b8;" horiz-adv-x="569" 
d="M365 -154q69 0 115 -39t46 -98q0 -94 -76 -145t-162 -51q-87 0 -204 32l16 103q82 -33 150 -33q68 -1 102 21q35 22 35 55t-28 55q-27 22 -69 21q-42 0 -61 -5l29 238h113l-21 -154h15z" />
    <glyph glyph-name="questiondown.sc" unicode="&#xf7bf;" horiz-adv-x="985" 
d="M791 981q0 -47 -35 -82t-82 -35t-82 35t-35 82t35 82t82 35t82 -35t35 -82zM766 469q0 -123 -123 -205l-246 -168q-102 -70 -137 -122t-35 -138q-1 -86 61 -148t194 -62t263 44l7 -139q-133 -45 -277 -45q-193 0 -303 99t-109 251q0 217 234 365l154 98q93 59 123 96
t30 85t-57 102l139 65q82 -86 82 -178z" />
    <glyph glyph-name="agrave.sc" unicode="&#xf7e0;" horiz-adv-x="1099" 
d="M664 1217l-306 278l113 80l297 -277zM582 981l-187 -438h299l-108 438h-4zM-49 0l10 119h102l451 991h176l285 -991h121l-11 -119h-426l11 119h129l-78 305h-373l-129 -305h152l-11 -119h-409z" />
    <glyph glyph-name="aacute.sc" unicode="&#xf7e1;" horiz-adv-x="1099" 
d="M455 1298l344 277l104 -80l-358 -278zM582 981l-187 -438h299l-108 438h-4zM-49 0l10 119h102l451 991h176l285 -991h121l-11 -119h-426l11 119h129l-78 305h-373l-129 -305h152l-11 -119h-409z" />
    <glyph glyph-name="acircumflex.sc" unicode="&#xf7e2;" horiz-adv-x="1099" 
d="M297 1346l285 229h139l248 -229l-105 -82l-221 196l-256 -196zM582 981l-187 -438h299l-108 438h-4zM-49 0l10 119h102l451 991h176l285 -991h121l-11 -119h-426l11 119h129l-78 305h-373l-129 -305h152l-11 -119h-409z" />
    <glyph glyph-name="atilde.sc" unicode="&#xf7e3;" horiz-adv-x="1099" 
d="M494 1503q64 0 156 -57q91 -57 121 -57q30 1 62 27t48 63l102 -70q-53 -86 -100 -118q-47 -31 -111 -31t-151 57q-86 57 -119 57q-66 0 -105 -104l-114 51q27 78 87 130t124 52zM582 981l-187 -438h299l-108 438h-4zM-49 0l10 119h102l451 991h176l285 -991h121l-11 -119
h-426l11 119h129l-78 305h-373l-129 -305h152l-11 -119h-409z" />
    <glyph glyph-name="adieresis.sc" unicode="&#xf7e4;" horiz-adv-x="1099" 
d="M315 1397q0 45 33 78t78 33t78 -34q33 -32 33 -77t-33 -78t-78 -33t-78 33t-33 78zM735 1397q0 45 32 78t79 33t79 -34q31 -32 31 -77t-32 -78t-78 -33q-47 0 -79 33t-32 78zM582 981l-187 -438h299l-108 438h-4zM-49 0l10 119h102l451 991h176l285 -991h121l-11 -119
h-426l11 119h129l-78 305h-373l-129 -305h152l-11 -119h-409z" />
    <glyph glyph-name="aring.sc" unicode="&#xf7e5;" horiz-adv-x="1099" 
d="M440 1384q0 90 56 152t152 63q95 0 138 -55t43 -129q0 -75 -48 -145t-144 -70q-197 0 -197 184zM727 1403q0 104 -80 104q-49 -1 -77 -35t-28 -80q1 -100 85 -100q47 0 73 34t27 77zM582 981l-187 -438h299l-108 438h-4zM-49 0l10 119h102l451 991h176l285 -991h121
l-11 -119h-426l11 119h129l-78 305h-373l-129 -305h152l-11 -119h-409z" />
    <glyph glyph-name="ae.sc" unicode="&#xf7e6;" horiz-adv-x="1441" 
d="M659 983l-233 -371h295l33 371h-95zM-37 119l633 983h750l-7 -279h-122l-7 160h-301l-28 -371h327l-10 -118h-332l-28 -375h360l33 170h119l-43 -289h-758l10 119h123l31 375h-355l-231 -375h147l-10 -119h-409l10 119h98z" />
    <glyph glyph-name="ccedilla.sc" unicode="&#xf7e7;" horiz-adv-x="1062" 
d="M496 -385q68 -1 102 21q35 22 35 55t-28 55q-27 22 -69 21q-42 0 -61 -5l27 220q-203 26 -308 162t-106 348q0 276 158 454t422 178q139 0 307 -39l-6 -270h-123l-6 158q-70 23 -183 22q-181 0 -293 -130t-112 -355q0 -403 375 -404q66 0 153 25l29 158h119l-25 -256
q-90 -49 -289 -56l-18 -131h14q70 0 116 -39t46 -98q0 -94 -76 -145t-186 -51q-63 -1 -180 32l16 103q82 -33 150 -33z" />
    <glyph glyph-name="egrave.sc" unicode="&#xf7e8;" horiz-adv-x="985" 
d="M606 1217l-305 278l113 80l297 -277zM61 0l11 119h123l71 864h-151l10 119h768l-6 -279h-123l-6 160h-336l-31 -356h357l-11 -119h-356l-31 -389h361l32 170h119l-43 -289h-758z" />
    <glyph glyph-name="eacute.sc" unicode="&#xf7e9;" horiz-adv-x="985" 
d="M397 1298l344 277l105 -80l-359 -278zM61 0l11 119h123l71 864h-151l10 119h768l-6 -279h-123l-6 160h-336l-31 -356h357l-11 -119h-356l-31 -389h361l32 170h119l-43 -289h-758z" />
    <glyph glyph-name="ecircumflex.sc" unicode="&#xf7ea;" horiz-adv-x="985" 
d="M240 1346l284 229h140l247 -229l-104 -82l-221 196l-256 -196zM61 0l11 119h123l71 864h-151l10 119h768l-6 -279h-123l-6 160h-336l-31 -356h357l-11 -119h-356l-31 -389h361l32 170h119l-43 -289h-758z" />
    <glyph glyph-name="edieresis.sc" unicode="&#xf7eb;" horiz-adv-x="985" 
d="M258 1397q0 45 33 78t78 33t77 -34q32 -32 33 -77q0 -45 -33 -78q-34 -33 -78 -33t-77 33t-33 78zM678 1397q0 45 32 78t78 33t79 -34q32 -32 32 -77t-32 -78t-79 -33q-46 0 -78 33t-32 78zM61 0l11 119h123l71 864h-151l10 119h768l-6 -279h-123l-6 160h-336l-31 -356
h357l-11 -119h-356l-31 -389h361l32 170h119l-43 -289h-758z" />
    <glyph glyph-name="igrave.sc" unicode="&#xf7ec;" horiz-adv-x="645" 
d="M436 1217l-305 278l113 80l297 -277zM76 0l10 119h123l72 864h-152l10 119h430l-10 -119h-123l-71 -864h151l-10 -119h-430z" />
    <glyph glyph-name="iacute.sc" unicode="&#xf7ed;" horiz-adv-x="645" 
d="M227 1298l344 277l105 -80l-359 -278zM76 0l10 119h123l72 864h-152l10 119h430l-10 -119h-123l-71 -864h151l-10 -119h-430z" />
    <glyph glyph-name="icircumflex.sc" unicode="&#xf7ee;" horiz-adv-x="645" 
d="M70 1346l284 229h140l247 -229l-104 -82l-221 196l-256 -196zM76 0l10 119h123l72 864h-152l10 119h430l-10 -119h-123l-71 -864h151l-10 -119h-430z" />
    <glyph glyph-name="idieresis.sc" unicode="&#xf7ef;" horiz-adv-x="645" 
d="M88 1397q0 45 32 78t79 33t79 -34q32 -32 32 -77t-32 -78t-79 -33t-79 33t-32 78zM508 1397q0 45 33 78t77 33t78 -34q33 -32 33 -77t-33 -78t-78 -33q-46 0 -78 33t-32 78zM76 0l10 119h123l72 864h-152l10 119h430l-10 -119h-123l-71 -864h151l-10 -119h-430z" />
    <glyph glyph-name="eth.sc" unicode="&#xf7f0;" horiz-adv-x="1214" 
d="M573 119q178 0 290 139t112 345t-92 293t-226 87h-235l-29 -356h291l-8 -119h-293l-33 -389h223zM682 1102q205 0 331 -119t126 -371t-153 -432t-406 -180h-519l11 119h123l32 389h-137l8 119h140l28 356h-151l10 119h557z" />
    <glyph glyph-name="ntilde.sc" unicode="&#xf7f1;" horiz-adv-x="1327" 
d="M566 1503q64 0 156 -57t121 -57q29 1 61 27t48 63l103 -70q-53 -86 -101 -118q-110 -74 -262 26q-86 57 -119 57q-65 0 -104 -104l-115 51q27 78 87 130q61 52 125 52zM57 0l11 119h122l72 864h-151l10 119h307l506 -850h4l59 731h-151l10 119h414l-10 -119h-123
l-82 -983h-148l-514 868h-4l-59 -749h151l-10 -119h-414z" />
    <glyph glyph-name="ograve.sc" unicode="&#xf7f2;" horiz-adv-x="1175" 
d="M700 1217l-305 278l113 80l297 -277zM252 508q0 -197 79 -299t226 -103q98 0 172 44t115 118q78 140 79 333q1 192 -78 293t-227 101q-98 0 -172 -44q-127 -76 -175 -271q-19 -82 -19 -172zM618 1124q230 0 350 -144t119 -368q0 -181 -68 -333q-38 -86 -95 -152
q-58 -66 -152 -108t-213 -42q-231 1 -351 145t-120 346q0 319 165 507q59 65 153 107t212 42z" />
    <glyph glyph-name="oacute.sc" unicode="&#xf7f3;" horiz-adv-x="1175" 
d="M492 1298l344 277l104 -80l-358 -278zM252 508q0 -197 79 -299t226 -103q98 0 172 44t115 118q78 140 79 333q1 192 -78 293t-227 101q-98 0 -172 -44q-127 -76 -175 -271q-19 -82 -19 -172zM618 1124q230 0 350 -144t119 -368q0 -181 -68 -333q-38 -86 -95 -152
q-58 -66 -152 -108t-213 -42q-231 1 -351 145t-120 346q0 319 165 507q59 65 153 107t212 42z" />
    <glyph glyph-name="ocircumflex.sc" unicode="&#xf7f4;" horiz-adv-x="1175" 
d="M334 1346l284 229h140l248 -229l-105 -82l-221 196l-256 -196zM252 508q0 -197 79 -299t226 -103q98 0 172 44t115 118q78 140 79 333q1 192 -78 293t-227 101q-98 0 -172 -44q-127 -76 -175 -271q-19 -82 -19 -172zM618 1124q230 0 350 -144t119 -368q0 -181 -68 -333
q-38 -86 -95 -152q-58 -66 -152 -108t-213 -42q-231 1 -351 145t-120 346q0 319 165 507q59 65 153 107t212 42z" />
    <glyph glyph-name="otilde.sc" unicode="&#xf7f5;" horiz-adv-x="1175" 
d="M532 1503q64 0 155 -57t121 -57q30 1 62 27t48 63l102 -70q-53 -86 -100 -118q-110 -75 -263 26q-86 57 -118 57q-66 0 -105 -104l-115 51q27 78 87 130q62 52 126 52zM252 508q0 -197 79 -299t226 -103q98 0 172 44t115 118q78 140 79 333q1 192 -78 293t-227 101
q-98 0 -172 -44q-127 -76 -175 -271q-19 -82 -19 -172zM618 1124q230 0 350 -144t119 -368q0 -181 -68 -333q-38 -86 -95 -152q-58 -66 -152 -108t-213 -42q-231 1 -351 145t-120 346q0 319 165 507q59 65 153 107t212 42z" />
    <glyph glyph-name="odieresis.sc" unicode="&#xf7f6;" horiz-adv-x="1175" 
d="M352 1397q0 45 33 78t78 33t78 -34q33 -32 33 -77t-34 -78q-32 -33 -77 -33t-78 33t-33 78zM772 1397q0 45 32 78t79 33t79 -34q32 -32 32 -77t-32 -78t-79 -33t-79 33t-32 78zM252 508q0 -197 79 -299t226 -103q98 0 172 44t115 118q78 140 79 333q1 192 -78 293
t-227 101q-98 0 -172 -44q-127 -76 -175 -271q-19 -82 -19 -172zM618 1124q230 0 350 -144t119 -368q0 -181 -68 -333q-38 -86 -95 -152q-58 -66 -152 -108t-213 -42q-231 1 -351 145t-120 346q0 319 165 507q59 65 153 107t212 42z" />
    <glyph glyph-name="oslash.sc" unicode="&#xf7f8;" horiz-adv-x="1175" 
d="M88 489q0 182 69 334q38 86 96 152q59 65 153 107t236 42t253 -77l143 192l80 -59l-149 -201q119 -139 118 -367q0 -181 -68 -333q-38 -86 -95 -152q-58 -66 -152 -108t-234 -42t-255 80l-146 -194l-80 59l152 203q-121 129 -121 364zM547 106q206 0 297 162
q78 141 78 313q1 173 -50 269l-505 -678q72 -66 180 -66zM252 521q0 -171 53 -267l504 676q-73 66 -181 66q-208 -1 -296 -161q-80 -143 -80 -314z" />
    <glyph glyph-name="ugrave.sc" unicode="&#xf7f9;" horiz-adv-x="1251" 
d="M739 1217l-305 278l113 80l297 -277zM313 303q0 -197 254 -197q125 0 198 58t81 153l57 666h-151l10 119h414l-11 -119h-123l-57 -653q-31 -352 -440 -353q-199 0 -293 80t-94 201q0 35 8 150l47 575h-152l11 119h430l-10 -119h-123l-50 -586q-6 -86 -6 -94z" />
    <glyph glyph-name="uacute.sc" unicode="&#xf7fa;" horiz-adv-x="1251" 
d="M530 1298l344 277l105 -80l-358 -278zM313 303q0 -197 254 -197q125 0 198 58t81 153l57 666h-151l10 119h414l-11 -119h-123l-57 -653q-31 -352 -440 -353q-199 0 -293 80t-94 201q0 35 8 150l47 575h-152l11 119h430l-10 -119h-123l-50 -586q-6 -86 -6 -94z" />
    <glyph glyph-name="ucircumflex.sc" unicode="&#xf7fb;" horiz-adv-x="1251" 
d="M348 1346l285 229h139l248 -229l-105 -82l-221 196l-256 -196zM313 303q0 -197 254 -197q125 0 198 58t81 153l57 666h-151l10 119h414l-11 -119h-123l-57 -653q-31 -352 -440 -353q-199 0 -293 80t-94 201q0 35 8 150l47 575h-152l11 119h430l-10 -119h-123l-50 -586
q-6 -86 -6 -94z" />
    <glyph glyph-name="udieresis.sc" unicode="&#xf7fc;" horiz-adv-x="1251" 
d="M367 1397q0 45 31 78q32 33 79 33t79 -34q32 -32 32 -77t-32 -78t-79 -33t-79 33q-31 33 -31 78zM786 1397q0 45 33 78t78 33t78 -34q33 -32 33 -77t-33 -78t-78 -33t-78 33t-33 78zM313 303q0 -197 254 -197q125 0 198 58t81 153l57 666h-151l10 119h414l-11 -119h-123
l-57 -653q-31 -352 -440 -353q-199 0 -293 80t-94 201q0 35 8 150l47 575h-152l11 119h430l-10 -119h-123l-50 -586q-6 -86 -6 -94z" />
    <glyph glyph-name="yacute.sc" unicode="&#xf7fd;" horiz-adv-x="1024" 
d="M416 1298l344 277l104 -80l-358 -278zM260 0l10 119h123l29 342l-322 522h-112l10 119h434l-10 -119h-137l231 -405l281 405h-148l10 119h414l-10 -119h-102l-383 -512l-29 -352h151l-10 -119h-430z" />
    <glyph glyph-name="thorn.sc" unicode="&#xf7fe;" horiz-adv-x="948" 
d="M535 905q169 0 251 -76q82 -77 82 -211t-94 -243t-285 -109h-129l-10 -147h152l-10 -119h-431l11 119h123l71 864h-151l10 119h430l-10 -119h-123l-6 -78h119zM461 385q119 0 185 60q66 59 67 151q0 92 -43 141t-125 49h-142l-32 -401h90z" />
    <glyph glyph-name="ydieresis.sc" unicode="&#xf7ff;" horiz-adv-x="1024" 
d="M236 1397q0 45 31 78q32 33 79 33t79 -34q32 -32 32 -77t-32 -78t-79 -33t-79 33q-31 33 -31 78zM655 1397q0 45 33 78t78 33t78 -34q33 -32 33 -77t-33 -78t-78 -33t-78 33t-33 78zM260 0l10 119h123l29 342l-322 522h-112l10 119h434l-10 -119h-137l231 -405l281 405
h-148l10 119h414l-10 -119h-102l-383 -512l-29 -352h151l-10 -119h-430z" />
    </font>
</defs>
</svg>
